<svg version="1.1" id="Layer_1" xmlns="http://www.w3.org/2000/svg" xmlns:xlink="http://www.w3.org/1999/xlink" x="0px" y="0px"
	 viewBox="0 0 2000 2000" style="enable-background:new 0 0 2000 2000;" xml:space="preserve">
<style type="text/css">
	.st0{fill:#d1d1d1;}
</style>
<g>
	<path class="st0" d="M996,1102.6l-0.1,1.8l-0.1-1.8l-378.7,805c39.2,16.6,79.8,30.5,121.3,42l264.9-564.8L1135,1665l-149.9,319.8
		c5.2,0.1,10.4,0.4,15.6,0.4c133,0,259.8-26.5,375.5-74.3L996,1102.6z"/>
	<path class="st0" d="M1000.7,16.7c-543.6,0-984.3,440.7-984.3,984.3c0,321.7,154.4,607.4,393.1,787l454.2-965.4H994h3.6h130.2
		l456.7,970.8c242.8-179.2,400.4-467.3,400.4-792.3C1985,457.4,1544.3,16.7,1000.7,16.7z M1299.6,699.4H692.1V445.7h607.5V699.4z"/>
</g>
</svg>
