<svg version="1.1" xmlns="http://www.w3.org/2000/svg" xmlns:xlink="http://www.w3.org/1999/xlink" x="0px" y="0px"
	 viewBox="0 0 82.6 47.1" style="enable-background:new 0 0 82.6 47.1;" xml:space="preserve">
        <style type="text/css">
            .commercial-proposal{fill:none;stroke:#000000;stroke-opacity:0.06;stroke-miterlimit:10;}
        </style>
        <circle class="commercial-proposal" cx="11.3" cy="39.5" r="7.2"/>
        <circle class="commercial-proposal" cx="11.3" cy="39.5" r="3.1"/>
        <circle class="commercial-proposal" cx="28.4" cy="39.5" r="7.2"/>
        <circle class="commercial-proposal" cx="28.4" cy="39.5" r="3.1"/>
        <circle class="commercial-proposal" cx="68.8" cy="39.5" r="7.2"/>
        <circle class="commercial-proposal" cx="68.8" cy="39.5" r="3.1"/>
        <polyline class="commercial-proposal" points="2.8,35.8 0.5,35.8 0.5,41.1 2.4,41.1 "/>
        <polyline class="commercial-proposal" points="37.5,35.8 51.5,35.8 51.5,2 "/>
        <line class="commercial-proposal" x1="38.4" y1="41.1" x2="59.4" y2="41.1"/>
        <polyline class="commercial-proposal" points="60.3,35.8 55.6,35.8 55.6,4.9 73.9,4.9 80.4,21.8 80.4,34.5 "/>
        <polyline class="commercial-proposal" points="77.3,34.3 82.1,34.3 82.1,38.7 80.4,42 77.3,42 "/>
        <line class="commercial-proposal" x1="58" y1="22.8" x2="61.7" y2="22.8"/>
        <polygon class="commercial-proposal" points="59,9.1 71.4,9.1 74.7,17.6 59,17.6 "/>
        <polyline class="commercial-proposal" points="61.7,2 48.9,2 47.8,9.1 3.5,9.1 0.5,33 "/>
        <line class="commercial-proposal" x1="14.3" y1="15.6" x2="12.7" y2="27.9"/>
        <line class="commercial-proposal" x1="27.9" y1="15.6" x2="26.4" y2="27.9"/>
        <line class="commercial-proposal" x1="41.6" y1="15.6" x2="40" y2="27.9"/>
        <path class="commercial-proposal" d="M7.1,9.1c0,0,4.4-8.6,18.7-8.6S46,9.1,46,9.1"/>
</svg>
