<svg width="74" height="103" version="1.1" id="Слой_1" xmlns="http://www.w3.org/2000/svg" xmlns:xlink="http://www.w3.org/1999/xlink" x="0px" y="0px"
	 viewBox="0 0 38 53.6" style="enable-background:new 0 0 38 53.6;" xml:space="preserve">
<style type="text/css">
	.commercial-proposal7__1{stroke-opacity:0.06;fill:none;stroke:#000000;stroke-miterlimit:10;}
</style>
<g>
	<path class="commercial-proposal7__1" d="M19.2,0.5h-6.2c-1.1,0-2.1,0.4-2.8,1.1L4.5,6.9c-0.8,0.8-1.3,1.9-1.3,3v32.6c0,2.3,1.9,4.2,4.2,4.2h11.9"/>
	<path class="commercial-proposal7__1" d="M18.5,0.5h6.2c1.1,0,2.1,0.4,2.8,1.1l5.6,5.3c0.8,0.8,1.3,1.9,1.3,3v32.6c0,2.3-1.9,4.2-4.2,4.2H18.5"/>
	<polyline class="commercial-proposal7__1" points="3.2,38.5 0.5,38.5 0.5,43.5 3.3,43.5 	"/>
	<polyline class="commercial-proposal7__1" points="34.7,23.6 37.5,23.6 37.5,18.6 34.7,18.6 	"/>
	<path class="commercial-proposal7__1" d="M28.4,53.1H9.1C8.5,53.1,8,52.6,8,52v-0.9c0-0.7,0.5-1.2,1.2-1.2h19.3c0.7,0,1.2,0.5,1.2,1.2V52
		C29.6,52.6,29.1,53.1,28.4,53.1z"/>
	<line class="commercial-proposal7__1" x1="30.3" y1="46.7" x2="28" y2="49.9"/>
	<line class="commercial-proposal7__1" x1="9.6" y1="49.9" x2="7.3" y2="46.7"/>
	<path class="commercial-proposal7__1" d="M18.5,4.4h-4.7c-0.5,0-0.9,0.2-1.3,0.5L9.2,7.8C8.7,8.2,8.4,8.7,8.4,9.3c0,0.5,0.2,1,0.5,1.4l2,2.1
		c0.4,0.4,0.5,0.9,0.5,1.4v21.2"/>
	<path class="commercial-proposal7__1" d="M18.1,4.4h5.7c0.5,0,0.9,0.2,1.3,0.5l3.4,2.9c0.4,0.4,0.7,0.9,0.7,1.5c0,0.5-0.2,1-0.6,1.4l-2,2.1
		c-0.4,0.4-0.5,0.9-0.5,1.4v21.2"/>
	<path class="commercial-proposal7__1" d="M6.8,46.7V38c0-1.4,1.2-2.6,2.6-2.6h19c1.4,0,2.6,1.2,2.6,2.6v8.6"/>
	<rect x="10.1" y="38.5" class="commercial-proposal7__1" width="10.2" height="5"/>
	<circle class="commercial-proposal7__1" cx="26.1" cy="41" r="1.6"/>
	<circle class="commercial-proposal7__1" cx="19" cy="22" r="4.3"/>
	<path class="commercial-proposal7__1" d="M11.6,16l1.7-1.7c0.7-0.7,1.7-1.1,2.7-1.1h5.7c1,0,2,0.4,2.7,1.1l1.7,1.7"/>
	<path class="commercial-proposal7__1" d="M26.1,27.6l-1.7,1.7c-0.7,0.7-1.7,1.1-2.7,1.1H16c-1,0-2-0.4-2.7-1.1l-1.7-1.7"/>
</g>
</svg>
