<svg width="60" height="95" version="1.1" id="Слой_1" xmlns="http://www.w3.org/2000/svg" xmlns:xlink="http://www.w3.org/1999/xlink" x="0px" y="0px"
	 viewBox="0 0 34 53.6" style="enable-background:new 0 0 34 53.6;" xml:space="preserve">
<style type="text/css">
	.commercial-proposal11__1{stroke-opacity:0.06; fill:none;stroke:#000000;stroke-miterlimit:10;}
	.commercial-proposal11__2{stroke-opacity:0.06; fill:none;stroke:#000000;stroke-miterlimit:10;}
</style>
<line class="commercial-proposal11__1" x1="2.6" y1="10.9" x2="2.6" y2="42.7"/>
<line class="commercial-proposal11__1" x1="31.4" y1="10.9" x2="31.4" y2="42.7"/>
<g>
	<path class="commercial-proposal11__2" d="M16.5,0.5H5.5c-2.8,0-5,2.3-5,5v3.3c0,1.1,0.9,2.1,2.1,2.1S4.6,10,4.6,8.8V5h11.9"/>
	<path class="commercial-proposal11__2" d="M16.2,0.5h12.2c2.8,0,5,2.3,5,5v3.3c0,1.1-0.9,2.1-2.1,2.1c-1.1,0-2.1-0.9-2.1-2.1V5H16.2"/>
	<path class="commercial-proposal11__2" d="M9.4,48.6H4.6v-3.8c0-1.1-0.9-2.1-2.1-2.1s-2.1,0.9-2.1,2.1V48c0,2.8,2.3,5,5,5h3.8c1.2,0,2.2-1,2.2-2.2
		C11.6,49.6,10.6,48.6,9.4,48.6z"/>
	<path class="commercial-proposal11__2" d="M24.6,48.6h4.8v-3.8c0-1.1,0.9-2.1,2.1-2.1c1.1,0,2.1,0.9,2.1,2.1V48c0,2.8-2.3,5-5,5h-3.8
		c-1.2,0-2.2-1-2.2-2.2C22.4,49.6,23.4,48.6,24.6,48.6z"/>
	<line class="commercial-proposal11__2" x1="11.6" y1="50.8" x2="22.4" y2="50.8"/>
	<circle class="commercial-proposal11__2" cx="17" cy="40.3" r="3.9"/>
	<rect x="7" y="10.9" class="commercial-proposal11__2" width="20.1" height="17.5"/>
</g>
</svg>
