<svg version="1.1" xmlns="http://www.w3.org/2000/svg" xmlns:xlink="http://www.w3.org/1999/xlink" x="0px" y="0px"
	 viewBox="0 0 66.9 38.8" style="enable-background:new 0 0 66.9 38.8;" xml:space="preserve">
    <style type="text/css">
        .commercial-proposal{fill:none;stroke:#000000; stroke-opacity:0.06; stroke-miterlimit:10;}
    </style>
    <path class="commercial-proposal" d="M33.9,18.4c15.2,0,16.9-4.8,26.4-4.8c1.4,0,2.6,0,4.6,0c2,0,1.5-2,1.5-2c0-4.4-18.5-5.9-32.5-5.9h-0.8
        c-14,0-32.5,1.5-32.5,5.9c0,0-0.5,2,1.5,2s3.2,0,4.6,0c9.5,0,11.2,4.8,26.4,4.8H33.9z"/>
    <line class="commercial-proposal" x1="1.8" y1="0.5" x2="16.8" y2="0.5"/>
    <line class="commercial-proposal" x1="7.1" y1="3.3" x2="7.1" y2="0.5"/>
    <line class="commercial-proposal" x1="11.1" y1="3.3" x2="11.1" y2="0.5"/>
    <path class="commercial-proposal" d="M5.9,8.2V4c0,0,0.2-0.7,2.1-0.7s2.1,0,2.1,0s2.2-0.2,2.2,0.9s0,2.7,0,2.7"/>
    <path class="commercial-proposal" d="M13.4,14.6L8,22.1c0,0-1.6,2.4-1.6,6.6s0,7.7,0,7.7s0.2,1.9,2.4,1.9s2.3-2,2.3-2V29c0,0-0.2-2.6,1.2-4.3
        s6.1-8.5,6.1-8.5"/>
    <line class="commercial-proposal" x1="65.1" y1="0.5" x2="50.1" y2="0.5"/>
    <line class="commercial-proposal" x1="59.8" y1="3.3" x2="59.8" y2="0.5"/>
    <line class="commercial-proposal" x1="55.8" y1="3.3" x2="55.8" y2="0.5"/>
    <path class="commercial-proposal" d="M61,8.2V4c0,0-0.2-0.7-2.1-0.7s-2.1,0-2.1,0s-2.2-0.2-2.2,0.9s0,2.7,0,2.7"/>
    <path class="commercial-proposal" d="M53.5,14.6l5.4,7.6c0,0,1.6,2.4,1.6,6.6s0,7.7,0,7.7s-0.2,1.9-2.4,1.9s-2.3-2-2.3-2V29c0,0,0.2-2.6-1.2-4.3
        c-1.3-1.7-6.1-8.5-6.1-8.5"/>
    <rect x="26.6" y="23.7" class="commercial-proposal" width="13.6" height="9.2"/>
    <polyline class="commercial-proposal" points="26.6,26.4 24.1,26.4 24.1,30 26.6,30 "/>
    <polyline class="commercial-proposal" points="40.3,26.4 42.9,26.4 42.9,30 40.3,30 "/>
    <circle class="commercial-proposal" cx="33.4" cy="28.3" r="2.3"/>
    <line class="commercial-proposal" x1="31.6" y1="23.7" x2="31.6" y2="18.4"/>
    <line class="commercial-proposal" x1="35.3" y1="23.7" x2="35.3" y2="18.4"/>
</svg>
