<svg version="1.1" xmlns="http://www.w3.org/2000/svg" xmlns:xlink="http://www.w3.org/1999/xlink" x="0px" y="0px"
	 viewBox="0 0 67.2 66.3" style="enable-background:new 0 0 67.2 66.3;" xml:space="preserve">
    <style type="text/css">
        .commercial-proposal{fill:none;stroke:#000000;stroke-miterlimit:10;}
    </style>
    <circle class="commercial-proposal" cx="15.5" cy="37.1" r="3.5"/>
    <circle class="commercial-proposal" cx="37.3" cy="37.1" r="3.5"/>
    <circle class="commercial-proposal" cx="47.3" cy="37.1" r="3.5"/>
    <polyline class="commercial-proposal" points="17.8,28.1 17.8,18.3 11.3,18.3 3.8,27.1 3.8,37.1 12,37.1 "/>
    <line class="commercial-proposal" x1="19" y1="37.1" x2="33.8" y2="37.1"/>
    <line class="commercial-proposal" x1="40.8" y1="37.1" x2="43.8" y2="37.1"/>
    <polyline class="commercial-proposal" points="50.8,37.1 52.6,37.1 52.6,3.1 58.3,3.1 "/>
    <line class="commercial-proposal" x1="58.3" y1="0" x2="58.3" y2="25.7"/>
    <rect x="56.7" y="25.7" class="commercial-proposal" width="3.3" height="40.1"/>
    <line class="commercial-proposal" x1="60" y1="40.6" x2="67.2" y2="40.6"/>
    <line class="commercial-proposal" x1="0" y1="40.6" x2="56.7" y2="40.6"/>
    <polyline class="commercial-proposal" points="17.8,21.1 21.8,21.1 21.8,37.1 "/>
    <line class="commercial-proposal" x1="52.6" y1="27.7" x2="21.8" y2="27.7"/>
    <line class="commercial-proposal" x1="52.6" y1="31.3" x2="21.8" y2="31.3"/>
    <polyline class="commercial-proposal" points="27.6,27.7 27.6,23.4 40.4,23.4 40.4,27.7 "/>
    <line class="commercial-proposal" x1="3.8" y1="34.2" x2="13.2" y2="34.2"/>
    <polygon class="commercial-proposal" points="14.5,21.5 14.5,27.7 7.6,27.7 12.9,21.5 "/>
    <polyline class="commercial-proposal" points="43.4,27.7 49,6.4 52.6,6.4 "/>
    <polyline class="commercial-proposal" points="48.7,8.8 52.1,11.7 47.2,15 52.1,19.5 45.1,22.8 52,27.4 "/>
</svg>
