<?xml version="1.0" encoding="utf-8"?>
<!-- Generator: Adobe Illustrator 22.1.0, SVG Export Plug-In . SVG Version: 6.00 Build 0)  -->
<svg version="1.1" id="Layer_1" xmlns="http://www.w3.org/2000/svg" xmlns:xlink="http://www.w3.org/1999/xlink" x="0px" y="0px"
	 viewBox="0 0 43.6 67.1" style="enable-background:new 0 0 43.6 67.1;" xml:space="preserve">
<style type="text/css">
	.commercial-proposal2{fill:none;stroke:#000000;stroke-opacity: 0.12;stroke-miterlimit:10;}
</style>
<path class="commercial-proposal2" d="M28.2,4h2.5c1.5,0,2.8,1.2,2.8,2.8v14.6c0,1.5-1.2,2.8-2.8,2.8H12.8c-1.5,0-2.8-1.2-2.8-2.8V6.8
	c0-1.5,1.2-2.8,2.8-2.8h2.4"/>
<path class="commercial-proposal2" d="M26,17.8h-8.5c-1.2,0-2.3-1-2.3-2.3V2.8c0-1.2,1-2.3,2.3-2.3H26c1.2,0,2.3,1,2.3,2.3v12.8
	C28.2,16.7,27.2,17.8,26,17.8z"/>
<circle class="commercial-proposal2" cx="21.8" cy="9" r="3.1"/>
<polyline class="commercial-proposal2" points="15.4,24.1 15.4,37.1 28.2,37.1 28.2,24.1 "/>
<line class="commercial-proposal2" x1="20.3" y1="37.1" x2="20.3" y2="66.9"/>
<line class="commercial-proposal2" x1="23.7" y1="37.1" x2="23.7" y2="66.9"/>
<line class="commercial-proposal2" x1="0.5" y1="66.9" x2="15.4" y2="29"/>
<line class="commercial-proposal2" x1="43.2" y1="66.9" x2="28.2" y2="29"/>
<line class="commercial-proposal2" x1="15.4" y1="37.1" x2="3.9" y2="66.9"/>
<line class="commercial-proposal2" x1="28.2" y1="37.1" x2="39.7" y2="66.9"/>
</svg>
