<svg width="70" height="94" version="1.1" id="Слой_1" xmlns="http://www.w3.org/2000/svg" xmlns:xlink="http://www.w3.org/1999/xlink" x="0px" y="0px"
	 viewBox="0 0 45.2 61.9" style="enable-background:new 0 0 45.2 61.9;" xml:space="preserve">
<style type="text/css">
	.commercial-proposal10__1{stroke-opacity:0.06;fill:none;stroke:#000000;stroke-miterlimit:10;}
	.commercial-proposal10__2{stroke-opacity:0.06;fill:none;stroke:#000000;stroke-linecap:round;stroke-miterlimit:10;}
</style>
<g>
	<path class="commercial-proposal9__2" d="M35.1,61.4H0.5V10.1c0-5.3,4.3-9.6,9.6-9.6h34.6v51.3C44.7,57.1,40.4,61.4,35.1,61.4z"/>
	<line class="commercial-proposal9__2" x1="10.8" y1="12.6" x2="34.4" y2="12.6"/>
	<line class="commercial-proposal9__2" x1="10.8" y1="24.7" x2="34.4" y2="24.7"/>
	<line class="commercial-proposal9__2" x1="10.8" y1="27.8" x2="34.4" y2="27.8"/>
	<line class="commercial-proposal9__2" x1="10.8" y1="30.9" x2="34.4" y2="30.9"/>
	<line class="commercial-proposal9__2" x1="10.8" y1="34.1" x2="34.4" y2="34.1"/>
	<line class="commercial-proposal9__2" x1="10.8" y1="37.2" x2="34.4" y2="37.2"/>
	<line class="commercial-proposal9__2" x1="16.8" y1="15.2" x2="28.4" y2="15.2"/>
	<ellipse transform="matrix(0.9936 -0.1128 0.1128 0.9936 -5.3145 3.9065)" class="commercial-proposal9__2" cx="31.8" cy="48.9" rx="4.4" ry="4.4"/>
	<line class="commercial-proposal9__2" x1="29.9" y1="47.7" x2="32.7" y2="46.8"/>
	<line class="commercial-proposal9__2" x1="31" y1="51.1" x2="33.8" y2="50.2"/>
	<line class="commercial-proposal9__2" x1="29.3" y1="49.7" x2="34.4" y2="48.1"/>
	<path class="commercial-proposal9__2" d="M9.4,47.6c0,0,5.1-0.5,6.1-3.6c0.5-1.7-1.1-2.3-1.7-0.8c-0.4,0.9-1,5.3-2.2,8.9c-0.5,1.5-1.6,4-2.9,3.2
		c-0.7-0.5,0.4-3,1.4-4.2c1.7-2,3.5-3.2,5-3c0.9,0.2-0.4,2.7-0.4,2.7s1.9-2.9,3.2-2.7c0.8,0.2,0.2,1.9,0.2,1.9"/>
</g>
</svg>
