<svg version="1.1" width="106" height="106" id="Слой_1" xmlns="http://www.w3.org/2000/svg" xmlns:xlink="http://www.w3.org/1999/xlink" x="0px" y="0px"
	 viewBox="0 0 59.9 59.9" style="enable-background:new 0 0 59.9 59.9;" xml:space="preserve">
<style type="text/css">
	.commercial-proposal8__1{stroke-opacity:0.06;fill:none;stroke:#000000;stroke-miterlimit:10;}
	.commercial-proposal8__2{stroke-opacity:0.06;fill:none;stroke:#000000;stroke-miterlimit:10;stroke-dasharray:3.813,3.813;}
	.commercial-proposal8__3{stroke-opacity:0.06;fill:none;stroke:#000000;stroke-miterlimit:10;stroke-dasharray:4,4;}
</style>
<g>
	<path class="commercial-proposal8__1" d="M29.9,54.3c-13.4,0-24.3-10.9-24.3-24.3c0-13.4,10.9-24.3,24.3-24.3"/>
	<path class="commercial-proposal8__1" d="M29.6,5.6c0.7,0,1.3,0,2,0.1"/>
	<path class="commercial-proposal8__2" d="M35.4,6.3C46,8.9,54,18.5,54,29.9c0,12.1-8.9,22.2-20.4,24"/>
	<path class="commercial-proposal8__1" d="M31.6,54.2c-0.7,0.1-1.3,0.1-2,0.1"/>
	<path class="commercial-proposal8__1" d="M29.9,41.8c-6.5,0-11.9-5.3-11.9-11.9c0-6.5,5.3-11.9,11.9-11.9"/>
	<path class="commercial-proposal8__3" d="M29.9,18.1c6.5,0,11.9,5.3,11.9,11.9c0,6.5-5.3,11.9-11.9,11.9"/>
	<line class="commercial-proposal8__1" x1="29.9" y1="0" x2="29.9" y2="59.9"/>
	<line class="commercial-proposal8__1" x1="59.9" y1="29.9" x2="0" y2="29.9"/>
</g>
</svg>
