<svg width="171" height="90" version="1.1" id="Слой_1" xmlns="http://www.w3.org/2000/svg" xmlns:xlink="http://www.w3.org/1999/xlink" x="0px" y="0px"
	 viewBox="0 0 58.7 30" style="enable-background:new 0 0 58.7 30;" xml:space="preserve">
<style type="text/css">
	.commercial-proposal9__1{stroke-opacity:0.06; fill:none;stroke:#000000;stroke-width:0.5;stroke-linejoin:round;stroke-miterlimit:10;}
	.commercial-proposal9__2{stroke-opacity:0.06; fill:none;stroke:#000000;stroke-width:0.5;stroke-linejoin:round;stroke-miterlimit:10;}
</style>
<polyline class="commercial-proposal9__1" points="17.7,7.8 20.2,7.1 22.8,8 19.6,9.8 "/>
<g>
	<polyline class="commercial-proposal9__2" points="51.7,15.5 58.5,11.9 55.5,11 38.4,16.1 	"/>
	<path class="commercial-proposal9__2" d="M45.6,18.5c0.1-0.5,0.3-1,0.5-1.6c1-2.1,3.1-3.1,4.6-2.4c1.5,0.7,1.9,3,0.9,5.1c-0.2,0.3-0.3,0.6-0.5,0.9"/>
	<line class="commercial-proposal9__2" x1="50.3" y1="14.4" x2="49.2" y2="17.3"/>
	<line class="commercial-proposal9__2" x1="49.4" y1="17.4" x2="51.2" y2="14.9"/>
	<path class="commercial-proposal9__2" d="M50.5,19c0.1-0.2-0.6-1.4-1.2-1.6c-0.4-0.2-0.9,0.1-1.1,0.6c-0.2,0.5-0.2,1.1,0.2,1.2c0.1,0,0.2,0.1,0.3,0.1
		C49.3,19.4,50.4,19.2,50.5,19z"/>
	<path class="commercial-proposal9__2" d="M14.7,10.9l1.1,0.8c1.4,1,2.6,2.3,3.5,3.8c1,1.7,2.5,2.9,4.4,3.6l2.3,0.8"/>
	<path class="commercial-proposal9__2" d="M12.8,7.5c0,0-0.8,0.1-0.9,0.9c-0.1,0.5,0.3,0.8,0.5,0.9"/>
	<path class="commercial-proposal9__2" d="M35.4,23l9.8,3.3c0,0,8.1,2.7,10.4-0.2c0.6-0.7-0.1-1.8-1.1-2.9c-1.5-1.6-3.3-2.7-5.4-3.4L19.3,9.7"/>
	<path class="commercial-proposal9__2" d="M12.8,8.1c0.1,0,7.3,2.5,7.3,2.5l-3-3.4L14.2,1l-2-0.7L12.8,8.1z"/>
	<polygon class="commercial-proposal9__2" points="12.9,9.1 6.5,10.2 9.4,11.2 17.3,10.6 14,9.5 	"/>
	<path class="commercial-proposal9__2" d="M24.7,25.3l-20,3.9l-4.5-1.6l27.3-8.2c0,0,3.2,0.2,5.4,1c2.3,0.8,3.6,2,3.6,2c-0.8,0.5-1.7,0.9-2.6,1.1
		l-2.8,0.5"/>
	<ellipse transform="matrix(0.4441 -0.896 0.896 0.4441 -7.6799 39.2559)" class="commercial-proposal9__2" cx="27.8" cy="25.8" rx="4.2" ry="3.1"/>
	<line class="commercial-proposal9__2" x1="27.4" y1="26.8" x2="26.2" y2="29.7"/>
	<line class="commercial-proposal9__2" x1="29.3" y1="21.9" x2="28.1" y2="24.8"/>
	<line class="commercial-proposal9__2" x1="28.4" y1="24.9" x2="30.2" y2="22.5"/>
	<line class="commercial-proposal9__2" x1="25.4" y1="29.1" x2="27.2" y2="26.7"/>
	<path class="commercial-proposal9__2" d="M29.4,26.5c0.1-0.2-0.6-1.4-1.2-1.6c-0.4-0.2-0.9,0.1-1.1,0.6c-0.2,0.5-0.2,1.1,0.2,1.2c0.1,0,0.2,0.1,0.3,0.1
		C28.3,26.9,29.3,26.7,29.4,26.5z"/>
	<path class="commercial-proposal9__2" d="M54.4,26.9c-0.5-0.2-0.6-0.9-0.3-1.6c0.3-0.5,0.8-0.9,1.2-0.8"/>
	<path class="commercial-proposal9__2" d="M52.9,21.8c0,0,0,0.4-0.7,0.6c-0.7,0.2-1.7-0.1-1.7-0.1L50,22.1l-1,1l2,0.7c0,0,1.9,0.4,2.8-0.3
		c0.5-0.4,0.3-0.6,0.3-0.6"/>
	<path class="commercial-proposal9__2" d="M15.8,10.7l2,0.7c1.6,0.5,3,1.4,4.1,2.6c1.2,1.2,2.6,2.1,4.1,2.6l22.1,7.5c0,0,4.4,1.6,6.2,0
		c0.5-0.5,0.1-0.9,0.1-0.9"/>
</g>
</svg>
