<svg width="101" height="68" version="1.1" id="Слой_1" xmlns="http://www.w3.org/2000/svg" xmlns:xlink="http://www.w3.org/1999/xlink" x="0px" y="0px"
	 viewBox="0 0 54.1 36.5" style="enable-background:new 0 0 54.1 36.5;" xml:space="preserve">
<style type="text/css">
	.commercial-proposal6__1{stroke-opacity:0.06;fill:none;stroke:#000000;stroke-miterlimit:10;}
	.commercial-proposal6__2{stroke-opacity:0.06;fill:none;stroke:#000000;stroke-linecap:round;stroke-miterlimit:10;}
</style>
<g>
	<path class="commercial-proposal6__1" d="M4.1,30.5V4.1c0-2,1.6-3.6,3.6-3.6h39c2,0,3.6,1.6,3.6,3.6v26.4"/>
	<path class="commercial-proposal6__1" d="M49.8,36H4.3c-2.1,0-3.8-1.7-3.8-3.8v-1.7h53.1v1.7C53.6,34.3,51.9,36,49.8,36z"/>
	<line class="commercial-proposal6__2" x1="23.7" y1="33.3" x2="30.6" y2="33.3"/>
	<line class="commercial-proposal6__2" x1="10.1" y1="24.3" x2="10.1" y2="15.5"/>
	<line class="commercial-proposal6__2" x1="13.5" y1="24.3" x2="13.5" y2="9.9"/>
	<line class="commercial-proposal6__2" x1="17" y1="24.3" x2="17" y2="18.6"/>
	<line class="commercial-proposal6__2" x1="20.4" y1="24.3" x2="20.4" y2="21.9"/>
	<line class="commercial-proposal6__2" x1="23.8" y1="24.3" x2="23.8" y2="20.8"/>
	<line class="commercial-proposal6__2" x1="27.2" y1="24.3" x2="27.2" y2="12.4"/>
	<line class="commercial-proposal6__2" x1="30.6" y1="24.3" x2="30.6" y2="17.1"/>
	<line class="commercial-proposal6__2" x1="34" y1="24.3" x2="34" y2="20.7"/>
	<line class="commercial-proposal6__2" x1="37.5" y1="24.3" x2="37.5" y2="19.9"/>
	<line class="commercial-proposal6__2" x1="40.9" y1="24.3" x2="40.9" y2="7.1"/>
	<line class="commercial-proposal6__2" x1="44.3" y1="24.3" x2="44.3" y2="15.5"/>
</g>
</svg>
