<?xml version="1.0" encoding="utf-8"?>
<!-- Generator: Adobe Illustrator 22.1.0, SVG Export Plug-In . SVG Version: 6.00 Build 0)  -->
<svg version="1.1" id="Layer_1" xmlns="http://www.w3.org/2000/svg" xmlns:xlink="http://www.w3.org/1999/xlink" x="0px" y="0px"
	 viewBox="0 0 30.7 37.3" style="enable-background:new 0 0 30.7 37.3;" xml:space="preserve">
<style type="text/css">
	.st0{fill:none;stroke:#43b343;stroke-linecap:round;stroke-linejoin:round;stroke-miterlimit:10;}
	.st1{fill:none;stroke:#43b343;stroke-linecap:round;stroke-linejoin:round;}
</style>
<g>
	<path class="st0" d="M23.3,24c-0.2,3.6-2.1,4.5-5.4,4.6"/>
	<path class="st0" d="M17.9,28.6c0,0.4-0.3,0.7-0.7,0.7h-1.4c-0.4,0-0.7-0.3-0.7-0.7l0,0c0-0.4,0.3-0.7,0.7-0.7h1.4
		C17.6,27.9,17.9,28.2,17.9,28.6L17.9,28.6z"/>
	<path class="st0" d="M10.2,24.2H8.9c-0.9,0-1.6-0.6-1.6-1.4v-4.3c0-0.8,0.7-1.4,1.6-1.4h1.3V24.2z"/>
	<path class="st0" d="M21.2,17.2h1.3c0.9,0,1.6,0.6,1.6,1.4v4.3c0,0.8-0.7,1.4-1.6,1.4h-1.3V17.2z"/>
	<path class="st1" d="M9.2,17.2v-2.4c0-3.6,2.9-6.5,6.5-6.5s6.5,2.9,6.5,6.5v2.4"/>
</g>
</svg>
