<svg xmlns="http://www.w3.org/2000/svg" xmlns:xlink="http://www.w3.org/1999/xlink" version="1.1" x="0px" y="0px" viewBox="0 0 100 125" style="enable-background:new 0 0 100 100;" xml:space="preserve"><path d="M88.7,69.5c0.4,1.6,2.1,17.7-0.2,20c-0.9,0.9-3.8,1.1-7.2,1.1c-5.4,0-11.8-0.7-12.8-1c-1.1-0.3-1.7-1.4-1.4-2.5  c0.3-1.1,1.4-1.7,2.5-1.4c2,0.5,8.7,0.9,13,0.8L55.8,59.8c-0.8-0.8-0.8-2,0-2.8s2-0.8,2.8,0l26.9,26.9c0.1,0.1,0.1,0.1,0.2,0.2  c0.1-4.3-0.3-11.4-0.8-13.5c-0.3-1.1,0.3-2.2,1.4-2.5C87.3,67.8,88.4,68.5,88.7,69.5z M12.3,32.9c0.2,0,0.3,0,0.5-0.1  c1.1-0.3,1.7-1.4,1.4-2.4c-0.5-2-0.9-8.7-0.8-13l27.4,27.4c0.4,0.4,0.9,0.6,1.4,0.6s1-0.2,1.4-0.6c0.8-0.8,0.8-2,0-2.8L16,14.4  c4.3-0.1,11.4,0.3,13.4,0.8c1.1,0.3,2.2-0.3,2.4-1.4c0.3-1.1-0.3-2.2-1.4-2.4c-1.6-0.4-17.7-2.1-20,0.2c-2.2,2.2-0.6,18.3-0.2,20  C10.6,32.3,11.4,32.9,12.3,32.9z M41.3,57.1L14.5,83.8c-0.1,0.1-0.1,0.1-0.2,0.2c-0.1-4.3,0.3-11.4,0.8-13.5  c0.3-1.1-0.3-2.2-1.4-2.5c-1.1-0.3-2.2,0.3-2.5,1.4c-0.4,1.6-2.1,17.7,0.2,20c0.9,0.9,3.8,1.1,7.2,1.1c5.4,0,11.8-0.7,12.8-1  c1.1-0.3,1.7-1.4,1.4-2.5c-0.3-1.1-1.4-1.7-2.5-1.4c-2,0.5-8.7,0.9-13,0.8l26.8-26.8c0.8-0.8,0.8-2,0-2.8S42.1,56.3,41.3,57.1z   M89.5,11.5c-2.2-2.2-18.3-0.6-20-0.2c-1.1,0.3-1.7,1.4-1.4,2.5c0.3,1.1,1.4,1.7,2.5,1.4c2-0.5,9.2-0.9,13.4-0.8L56.4,41.9  c-0.8,0.8-0.8,2,0,2.8c0.4,0.4,0.9,0.6,1.4,0.6s1-0.2,1.4-0.6l27.4-27.4c0.1,4.3-0.3,11-0.8,13c-0.3,1.1,0.3,2.2,1.4,2.5  c0.2,0,0.3,0.1,0.5,0.1c0.9,0,1.7-0.6,1.9-1.5C90.1,29.8,91.7,13.7,89.5,11.5z"/><text x="0" y="115" fill="#000000" font-size="5px" font-weight="bold" font-family="'Helvetica Neue', Helvetica, Arial-Unicode, Arial, Sans-serif">Created by Khuzema</text><text x="0" y="120" fill="#000000" font-size="5px" font-weight="bold" font-family="'Helvetica Neue', Helvetica, Arial-Unicode, Arial, Sans-serif">from the Noun Project</text></svg>