<?xml version="1.0" encoding="utf-8"?>
<svg version="1.1" id="Слой_1" xmlns="http://www.w3.org/2000/svg" xmlns:xlink="http://www.w3.org/1999/xlink" x="0px" y="0px"
	 viewBox="0 0 114.4 69.4" style="enable-background:new 0 0 114.4 69.4;" xml:space="preserve">
<style type="text/css">
	.st0{clip-path:url(#SVGID_2_);}
	.st1{clip-path:url(#SVGID_4_);fill:none;stroke:#D6D6D6;stroke-width:1.6;stroke-miterlimit:10;}
	.st2{clip-path:url(#SVGID_4_);fill:#43B243;}
	.st3{opacity:0.16;clip-path:url(#SVGID_4_);}
	.st4{clip-path:url(#SVGID_6_);fill:#91C25F;}
	.st5{clip-path:url(#SVGID_8_);fill:#91C25F;}
	.st6{clip-path:url(#SVGID_10_);fill:#91C25F;}
</style>
<g>
	<defs>
		<rect id="SVGID_1_" width="114.4" height="69.4"/>
	</defs>
	<clipPath id="SVGID_2_">
		<use xlink:href="#SVGID_1_"  style="overflow:visible;"/>
	</clipPath>
	<g class="st0">
		<defs>
			<rect id="SVGID_3_" y="0" width="114.4" height="69.4"/>
		</defs>
		<clipPath id="SVGID_4_">
			<use xlink:href="#SVGID_3_"  style="overflow:visible;"/>
		</clipPath>
		<path class="st1" d="M102.2,0.8h0.5c0.4,0.1,0.6,0.3,0.7,0.6c0.1,0.4,0.3,0.8,0.4,1.2c0.1,0.4,0.1,0.8-0.2,1.1
			c-0.7,0.7-1.3,1.4-2,2c-0.3,0.3-0.5,0.6-0.8,0.9c-0.3,0.3-0.3,0.7,0.1,1c0.4,0.3,0.8,0.6,1.1,0.9c0.3,0.2,0.6,0.3,0.9,0.1
			c0.2-0.1,0.3-0.2,0.5-0.3c0.7-0.3,1.2-0.1,1.4,0.6c0.3,1.2,0.6,2.3,0.8,3.5c0.3,1.3,0.6,2.5,0.9,3.8c0.2,0.6,0.1,1.1-0.2,1.6
			c-0.5,0.9-1,1.8-1.5,2.7c-0.2,0.3-0.2,0.6,0,1c0.4,0.7,0.8,1.4,1.2,2.2c0.2,0.4,0.5,0.5,0.9,0.4c0.1,0,0.3-0.1,0.4-0.1
			c0.5-0.1,0.9,0,1.2,0.5c0.4,0.6,0.7,1.2,1.1,1.9c0.7,1.3,1.5,2.6,2.2,3.9c0.2,0.4,0.5,0.8,0.7,1.2c0.1,0.2,0.2,0.4,0.2,0.6
			c0,0.4,0.1,0.8,0.1,1.3c0,0.1,0,0.1,0,0.2v0.7c-0.1,0.4-0.3,0.5-0.7,0.6c-0.4,0-0.7,0-1.1,0.1c-0.3,0-0.5-0.1-0.7-0.2
			c-0.8-0.6-1.7-1.2-2.5-1.8c-1-0.7-1.9-1.3-2.9-2c-0.3-0.2-0.4-0.4-0.5-0.7c-0.5-2-0.9-4-1.4-6c-0.1-0.6-0.3-1.2-0.4-1.8
			c-0.1-0.5-0.6-0.7-1-0.4c-0.4,0.3-0.8,0.6-1.1,1c-0.1,0.1-0.2,0.3-0.2,0.4c0,1.4,0,2.7,0,4.1c0,0.3,0.1,0.5,0.3,0.6
			c0.2,0.1,0.3,0.2,0.5,0.3c0.3,0.2,0.4,0.3,0.1,0.7c-0.4,0.6-0.9,1.2-1.3,1.8c-0.2,0.2-0.3,0.4-0.5,0.6c-0.3,0.5-0.8,0.7-1.2,1
			c-1.2,0.9-2.4,1.8-3.6,2.7c-0.3,0.2-0.4,0.5-0.4,0.8c0.1,1.5,0,3.1,0.1,4.6c0,1.1,0,2.1,0,3.2c0,0.1,0,0.3,0,0.4
			c0.1,0.4,0.3,0.6,0.7,0.6c0.5,0,0.9,0,1.4,0c0.4,0,0.6-0.2,0.7-0.6c0.1-0.8,0.4-1,1.1-1.1c0.4,0,0.9,0,1.3,0
			c0.5,0,0.7-0.2,0.8-0.7c0-0.2,0.1-0.4,0.1-0.6c0.1-0.4,0.2-0.5,0.6-0.2c0.6,0.4,1.2,0.8,1.8,1.3c1.2,0.9,2.4,1.7,3.6,2.6
			c0.2,0.2,0.5,0.4,0.5,0.7c0.1,0.3,0,0.6-0.2,0.8c-0.4,0.5-0.3,0.8,0.1,1.2c0.6,0.5,1.1,0.9,1.6,1.4c0.5,0.4,0.4,1.2-0.1,1.5
			c-0.3,0.2-0.4,0.5-0.7,0.5c-0.3,0.1-0.6,0-0.8-0.2c-0.6-0.6-1.2-1.2-1.7-1.8c-0.4-0.4-0.8-0.8-1.2-1.2c-0.2-0.2-0.5-0.2-0.8-0.1
			c-0.2,0.2-0.3,0.5-0.2,0.8c0.3,0.7,0.6,1.5,0.9,2.2c0.1,0.3,0.2,0.6,0.4,0.9c0.1,0.3,0.1,0.7,0.1,1c0,0.6,0.1,1.3,0.1,1.9
			c0.1,0.9,0.1,1.8,0.2,2.7c0,0.6,0.1,1.2,0.1,1.9c0,0.3,0.1,0.5,0.1,0.8c0,0.3-0.1,0.5-0.2,0.8c-0.4,0.5-0.7,0.9-1.1,1.4
			c-0.2,0.2-0.4,0.3-0.7,0.3c-0.5,0-1,0-1.6,0c-0.2,0-0.4-0.1-0.6-0.2c-0.4-0.4-0.9-0.8-1.3-1.2c-0.5-0.4-0.5-0.8-0.4-1.4
			c0.1-0.4,0.2-0.6,0.6-0.6c0.3-0.1,0.6-0.2,0.9-0.3c0.4-0.2,0.6-0.4,0.4-0.9c-0.2-0.5-0.4-1.1-0.6-1.6c-0.1-0.3-0.2-0.6-0.3-0.9
			c-0.1-0.3-0.3-0.5-0.6-0.5c-0.3,0-0.5,0.2-0.6,0.5c-0.1,0.2-0.2,0.4-0.3,0.6c-0.2,0.3-0.5,0.5-0.8,0.5c-1-0.1-1.9,0-2.9-0.1
			c-0.4,0-0.8,0-1.2,0c-0.8,0.1-1.4-0.2-1.9-0.8c-0.8-0.7-1.6-1.4-2.5-2.1c-0.3-0.3-0.7-0.5-1-0.8c-0.4-0.4-0.7-0.4-1.2-0.1
			c-1.1,0.6-2.1,1.3-3.2,1.9c-0.3,0.2-0.4,0.4-0.3,0.8c0.2,1.1,0.4,2.2,0.7,3.3c0.1,0.4,0,0.8-0.3,1.1c-0.5,0.4-1,0.9-1.4,1.3
			c-0.3,0.2-0.6,0.3-0.9,0.2c-0.4-0.1-0.8-0.1-1.2-0.2c-0.6-0.1-0.7,0-1.1,0.5c-0.4,0.6-0.8,1.2-1.2,1.8c-0.2,0.3-0.5,0.5-0.9,0.6
			c-1.2,0.2-2.3,0.3-3.5,0.5c-0.3,0-0.6,0-0.9-0.2c-0.5-0.3-0.9-0.5-1.4-0.8c-0.3-0.2-0.5-0.2-0.8-0.1c-0.9,0.1-1.7,0.3-2.6,0.4
			c-0.4,0.1-0.6,0-0.8-0.4c-0.1-0.1-0.2-0.3-0.2-0.4C67.1,63.1,67,63,66.8,63c-0.6-0.2-1.3-0.4-1.9-0.6c-0.5-0.2-0.9,0.2-0.9,0.7
			c0,0.4,0.1,0.9,0.1,1.3c0.1,0.5-0.2,1-0.7,1.1c-1.1,0.2-2.2,0.4-3.3,0.6c-0.4,0.1-0.7,0-0.9-0.3c-0.3-0.3-0.5-0.5-0.8-0.8
			c-0.3-0.3-0.6-0.3-0.9-0.1c-1.1,0.8-2.2,1.7-3.2,2.6c-0.5,0.4-0.9,0.5-1.4,0.2c-2-1.1-4.1-2.2-6.1-3.3c-0.4-0.2-0.8-0.4-1.2-0.6
			c-0.3-0.1-0.4-0.3-0.6-0.6c-0.8-1.5-1.6-3.1-2.3-4.6c-0.2-0.3-0.4-0.5-0.7-0.6c-1.1-0.2-2.2-0.5-3.3-0.8c-0.4-0.1-0.7-0.3-0.9-0.7
			c-0.2-0.4-0.5-0.8-0.7-1.3c-0.2-0.3-0.4-0.5-0.8-0.5c-1.8,0-3.5,0-5.3,0c-0.5,0-1,0-1.4,0c-0.3,0-0.6,0.1-0.7,0.5
			c-0.5,1-1,1.9-1.5,2.9c-0.3,0.5-0.8,0.7-1.3,0.4c-1.3-0.6-2.6-1.3-3.9-1.9c-0.4-0.2-0.7-0.6-0.9-1c-0.6-0.7-1.2-1.5-1.8-2.3
			C19.2,53.1,19,53,18.8,53c-0.6,0-1.3,0.1-1.9,0.1c-0.8,0.1-1.6,0.1-2.4,0.2c-0.5,0-0.7,0.3-0.7,0.8c0,0.6,0,1.3,0,1.9
			c0,0.2,0,0.4-0.1,0.6c-0.4,0.7-0.8,1.5-1.2,2.2c-0.2,0.3-0.4,0.4-0.7,0.5c-0.6,0.1-1.3,0.2-1.9,0.4c-0.5,0.1-0.6,0.3-0.7,0.7
			C9,61.6,8.9,62.8,8.8,64c0,0.4-0.4,0.9-0.9,0.9c-0.4,0-0.7,0-1.1,0c-0.4,0-0.7-0.2-0.9-0.5c-0.3-0.6-0.7-1.2-1-1.8
			c-1-1.8-2-3.6-3-5.3c-0.3-0.6-0.7-1.1-1-1.7c-0.1-0.3-0.1-0.5-0.1-0.8c0-0.4,0-0.9-0.1-1.3v-0.8c0.1-0.4,0.4-0.6,0.8-0.7
			c1.8-0.7,3.6-1.3,5.4-2c0.5-0.2,0.6-0.6,0.4-1c-0.4-0.7-0.8-1.5-1.2-2.2c-0.3-0.5-0.5-1-0.8-1.5c-0.1-0.2-0.2-0.5-0.2-0.7
			c0-1.4,0-2.8,0-4.2c0-0.3,0-0.5,0.2-0.7c0.3-0.3,0.6-0.4,1-0.3c0.7,0.1,0.8,0,1.1-0.6c0.4-0.8,0.8-1.7,1.2-2.5
			c0.1-0.2,0.1-0.5,0-0.7C8.5,35,8.3,34.5,8,34c-0.3-0.6-0.2-1,0.3-1.4c0.8-0.7,1.6-1.4,2.4-2.1c0.5-0.4,0.9-0.8,1.4-1.2
			c0.2-0.2,0.4-0.2,0.7-0.2c1.2,0,2.4,0,3.6,0c0.1,0,0.2,0,0.3,0c0.3,0,0.5-0.3,0.6-0.6c0-0.3,0-0.7,0-1c0-0.4,0.1-0.7,0.4-1
			c1.1-1.1,2.2-2.1,3.2-3.2c0.3-0.3,0.7-0.5,1.1-0.5c0.7,0,0.6,0,0.6-0.6c0-0.3,0-0.6,0-1c0-0.6,0.4-1,1-1c0.6,0,1.1,0,1.7,0
			c0.4,0,0.7,0.2,0.9,0.6c0.6,1.7,1.2,3.5,1.7,5.2c0.2,0.6,0.1,0.9-0.4,1.2c-0.6,0.4-1.1,0.7-1.7,1.1c-0.5,0.4-1,0.2-1.4-0.3
			c-0.3-0.5-0.6-1-0.9-1.5c-0.4-0.6-0.9-0.6-1.3,0c-0.3,0.5-0.7,1-1,1.4c-0.2,0.3-0.2,0.6,0,0.9c0.2,0.3,0.4,0.6,0.6,0.8
			c0.2,0.2,0.4,0.4,0.7,0.4c1.4,0,2.8,0,4.2,0c0.2,0,0.4-0.1,0.6-0.2c0.6-0.6,1.3-1.2,1.9-1.7c0.3-0.3,0.5-0.5,1-0.4
			c0.6,0.1,1.3,0.8,1.2,1.3c0,0.2-0.1,0.4-0.2,0.6c-0.1,0.3-0.1,0.3,0.2,0.4c1.5,0.3,3,0.7,4.5,1c0.5,0.1,1,0.2,1.5,0.3
			c0.3,0.1,0.5,0,0.8-0.1c0.2-0.1,0.3-0.2,0.5-0.3c0.4-0.2,0.8-0.2,1.1,0.1c0.7,0.6,1.3,1.2,2,1.8c0.4,0.4,0.9,0.3,1.2-0.2
			c0.5-1.3,3.3-0.7,2.8,0.9c0,0.2-0.1,0.3-0.1,0.5c0,0.2,0,0.3,0.2,0.3c0.6,0,0.9-0.1,1.1-0.7c0.5-1.2,1.1-2.3,1.6-3.5
			c0.2-0.4,0.5-0.6,1-0.7c0.3,0,0.6-0.1,0.9-0.1c0.5-0.1,0.6-0.3,0.6-0.7c0-0.1,0-0.3,0-0.4c0.1-0.5,0.4-0.8,0.9-0.8
			c0.6,0,1.2,0,1.7,0c0.5,0,0.8-0.2,0.8-0.8c0-0.4,0-0.8,0-1.2c0-0.4,0.2-0.7,0.5-1c1.1-0.7,2.2-1.5,3.3-2.2
			c0.8-0.6,1.6-1.1,2.4-1.7c0.4-0.3,0.9-0.4,1.4-0.1c0.9,0.4,1.9,0.8,2.9,1.2c0.8,0.3,0.9,0.7,0.7,1.5c-0.3,0.7-0.6,1.5-0.9,2.2
			c-0.1,0.1-0.1,0.3-0.1,0.4c0,0.5,0.4,0.8,0.8,0.6c0.4-0.2,0.9-0.3,1.3-0.5c0.5-0.2,1-0.4,1.5-0.6c0.6-0.3,1.2-0.3,1.8-0.4
			c0.8-0.1,1.6-0.1,2.4-0.2c0.6-0.1,1.2-0.1,1.8-0.1c0.4,0,0.8,0.1,1.1,0.3c0.4,0.2,0.7,0.3,1.1,0.5c0.4,0.2,0.7,0.1,0.9-0.2
			c0.6-0.8,1.2-1.6,1.8-2.4c0.3-0.4,0.3-0.6,0-1c-0.1-0.2-0.2-0.3-0.4-0.5c-0.2-0.4-0.2-0.8,0.1-1.1c0.2-0.2,0.4-0.3,0.6-0.5
			c1-0.7,2.1-1.4,3.1-2.1c0.4-0.2,0.7-0.3,1.1-0.2c0.5,0.2,0.9,0.3,1.4,0.5c0.5,0.2,0.7,0,0.9-0.4c0.2-0.6,0.5-1.2,0.7-1.9
			c0.2-0.4,0.5-0.6,0.9-0.6c0.6,0,1.3,0,1.9,0c0.5,0,0.7-0.1,0.9-0.6c0.3-0.7,0.5-1.3,0.8-2c0.1-0.3,0.4-0.5,0.7-0.7
			c0.4-0.1,0.7-0.2,1.1-0.3c0.3-0.1,0.8-0.8,0.7-1.1c0-0.1-0.1-0.2-0.2-0.2c-0.2-0.2-0.4-0.3-0.6-0.5c-0.4-0.4-0.4-0.9,0-1.3
			c0.5-0.5,1-0.9,1.5-1.4c0.5-0.4,1-0.9,1.4-1.3c0.7-0.6,1.4-1.3,2.1-1.9c0.4-0.3,0.8-0.3,1.3-0.5c0.2,0,0.3-0.1,0.5-0.1
			c0.3-0.1,0.5-0.4,0.5-0.7c0-0.2,0-0.3-0.1-0.5c-0.1-0.4,0.3-1,0.8-1c0.3,0,0.7,0,1,0C102,0.8,102.1,0.9,102.2,0.8z"/>
		<path class="st2" d="M66.8,54.6c0,1.8-1.5,3.3-3.3,3.3s-3.3-1.5-3.3-3.3c0-1.8,1.5-3.3,3.3-3.3S66.8,52.8,66.8,54.6"/>
		<path class="st2" d="M84,45.1c0,1.8-1.5,3.3-3.3,3.3c-1.8,0-3.3-1.5-3.3-3.3s1.5-3.3,3.3-3.3C82.5,41.8,84,43.3,84,45.1"/>
		<path class="st2" d="M102.9,50.6c0,1.8-1.5,3.3-3.3,3.3c-1.8,0-3.3-1.5-3.3-3.3s1.5-3.3,3.3-3.3C101.4,47.3,102.9,48.8,102.9,50.6
			"/>
		<g class="st3">
			<g>
				<defs>
					<rect id="SVGID_5_" x="48.6" y="39.8" width="29.6" height="29.6"/>
				</defs>
				<clipPath id="SVGID_6_">
					<use xlink:href="#SVGID_5_"  style="overflow:visible;"/>
				</clipPath>
				<path class="st4" d="M78.2,54.6c0,8.2-6.6,14.8-14.8,14.8c-8.2,0-14.8-6.6-14.8-14.8s6.6-14.8,14.8-14.8
					C71.6,39.8,78.2,46.4,78.2,54.6"/>
			</g>
		</g>
		<g class="st3">
			<g>
				<defs>
					<rect id="SVGID_7_" x="65.8" y="30.3" width="29.6" height="29.6"/>
				</defs>
				<clipPath id="SVGID_8_">
					<use xlink:href="#SVGID_7_"  style="overflow:visible;"/>
				</clipPath>
				<path class="st5" d="M95.5,45.1c0,8.2-6.6,14.8-14.8,14.8s-14.8-6.6-14.8-14.8s6.6-14.8,14.8-14.8S95.5,36.9,95.5,45.1"/>
			</g>
		</g>
		<g class="st3">
			<g>
				<defs>
					<rect id="SVGID_9_" x="84.8" y="35.8" width="29.6" height="29.6"/>
				</defs>
				<clipPath id="SVGID_10_">
					<use xlink:href="#SVGID_9_"  style="overflow:visible;"/>
				</clipPath>
				<path class="st6" d="M114.4,50.6c0,8.2-6.6,14.8-14.8,14.8s-14.8-6.6-14.8-14.8s6.6-14.8,14.8-14.8S114.4,42.5,114.4,50.6"/>
			</g>
		</g>
	</g>
</g>
</svg>
