<svg xmlns="http://www.w3.org/2000/svg" xmlns:xlink="http://www.w3.org/1999/xlink" viewBox="0 0 17.97 22.01"><defs><style>.cls-1,.cls-3{fill:none;}.cls-2{clip-path:url(#clip-path);}.cls-3{stroke:#43b343;stroke-linecap:round;stroke-linejoin:round;}</style><clipPath id="clip-path"><rect class="cls-1" width="17.97" height="22.01"/></clipPath></defs><title>Ресурс 1</title><g id="Слой_2" data-name="Слой 2"><g id="Слой_1-2" data-name="Слой 1"><g class="cls-2"><path class="cls-3" d="M16.64,16.25c-.15,3.58-2.08,4.46-5.44,4.58"/><path class="cls-3" d="M11.2,20.84a.67.67,0,0,1-.67.67H9.11a.67.67,0,1,1,0-1.33h1.42A.67.67,0,0,1,11.2,20.84Z"/><path class="cls-3" d="M3.47,16.42H2.14A1.52,1.52,0,0,1,.5,15.06V10.78A1.52,1.52,0,0,1,2.14,9.42H3.47Z"/><path class="cls-3" d="M14.5,9.42h1.33a1.52,1.52,0,0,1,1.64,1.36v4.29a1.52,1.52,0,0,1-1.64,1.36H14.5Z"/><path class="cls-3" d="M2.49,9.42V7a6.49,6.49,0,1,1,13,0V9.42"/></g></g></g></svg>