<svg xmlns="http://www.w3.org/2000/svg" xmlns:xlink="http://www.w3.org/1999/xlink" viewBox="0 0 22.22 22.23"><defs><style>.cls-1,.cls-3{fill:none;}.cls-2{clip-path:url(#clip-path);}.cls-3{stroke:#43b343;stroke-linecap:round;stroke-linejoin:round;}</style><clipPath id="clip-path" transform="translate(0 0)"><rect class="cls-1" width="22.23" height="22.23"/></clipPath></defs><title>Ресурс 1</title><g id="Слой_2" data-name="Слой 2"><g id="Слой_1-2" data-name="Слой 1"><g class="cls-2"><path class="cls-3" d="M11.11.5A10.61,10.61,0,1,0,21.73,11.11,10.62,10.62,0,0,0,11.11.5Z" transform="translate(0 0)"/><path class="cls-3" d="M18.17,19c-2.3-1-4.54-2.06-4.75-2.75v-.93a5.88,5.88,0,0,0,1.39-2.53,1.51,1.51,0,0,0,.29-2.19V8.54c0-2.15-1.2-3.62-3.93-3.62S7.23,6.39,7.23,8.54v2.08a1.51,1.51,0,0,0,.29,2.19,5.88,5.88,0,0,0,1.39,2.53v.93C8.69,17,6.6,18,4.27,19" transform="translate(0 0)"/></g></g></g></svg>