<?xml version="1.0" encoding="utf-8"?>
<!-- Generator: Adobe Illustrator 22.1.0, SVG Export Plug-In . SVG Version: 6.00 Build 0)  -->
<svg version="1.1" id="Слой_1" xmlns="http://www.w3.org/2000/svg" xmlns:xlink="http://www.w3.org/1999/xlink" x="0px" y="0px"
	 viewBox="0 0 149 49.3" style="enable-background:new 0 0 149 49.3;" xml:space="preserve">
<style type="text/css">
	.st0{fill:#4EAD58;}
</style>
<path class="st0" d="M16.7,22.8c0-1.6-0.2-2.7-0.6-3.4s-1.1-1-2.2-1c-0.4,0-0.8,0-1.3,0.1s-0.8,0.1-1,0.1v12.1H8.2V16.2
	c0.7-0.2,1.5-0.4,2.6-0.5c1.1-0.2,2.2-0.3,3.4-0.3c1,0,1.9,0.1,2.5,0.4c0.7,0.3,1.2,0.6,1.6,1.1c0.2-0.2,0.5-0.3,0.8-0.5
	s0.7-0.3,1.1-0.5c0.4-0.1,0.8-0.3,1.3-0.4c0.4-0.1,0.9-0.1,1.4-0.1c1.2,0,2.1,0.2,2.9,0.5c0.8,0.3,1.3,0.8,1.8,1.4
	c0.4,0.6,0.7,1.3,0.9,2.2c0.2,0.8,0.2,1.8,0.2,2.8v8.4h-3.5v-7.9c0-1.6-0.2-2.7-0.6-3.4s-1.1-1-2.2-1c-0.6,0-1.1,0.1-1.6,0.3
	s-0.9,0.4-1.1,0.5c0.2,0.5,0.3,1,0.3,1.5c0.2,0.5,0.2,1.1,0.2,1.7v8.3h-3.5C16.7,30.7,16.7,22.8,16.7,22.8z"/>
<path class="st0" d="M29.6,23.3c0-1.3,0.2-2.5,0.6-3.5s0.9-1.8,1.6-2.5c0.6-0.7,1.4-1.2,2.2-1.5c0.8-0.3,1.7-0.5,2.6-0.5
	c2.1,0,3.7,0.6,4.8,1.9c1.2,1.3,1.7,3.2,1.7,5.7c0,0.2,0,0.4,0,0.6s0,0.5,0,0.6h-9.9c0.1,1.2,0.5,2.1,1.3,2.8c0.8,0.7,1.8,1,3.3,1
	c0.8,0,1.6-0.1,2.3-0.2c0.7-0.2,1.2-0.3,1.6-0.5l0.5,2.8c-0.2,0.1-0.5,0.2-0.8,0.3c-0.3,0.1-0.7,0.2-1.1,0.3
	c-0.4,0.1-0.9,0.2-1.4,0.2c-0.5,0.1-1,0.1-1.5,0.1c-1.3,0-2.5-0.2-3.4-0.6c-1-0.4-1.8-0.9-2.4-1.6s-1.1-1.5-1.4-2.5
	C29.7,25.4,29.6,24.4,29.6,23.3z M39.6,21.7c0-0.5-0.1-0.9-0.2-1.4c-0.1-0.4-0.3-0.8-0.6-1.1s-0.6-0.6-0.9-0.7
	c-0.4-0.2-0.8-0.3-1.3-0.3s-1,0.1-1.4,0.3s-0.7,0.5-1,0.8s-0.5,0.7-0.6,1.1c-0.3,0.4-0.4,0.9-0.4,1.3C33.2,21.7,39.6,21.7,39.6,21.7
	z"/>
<path class="st0" d="M56.8,29.2c0,2.4-0.6,4.1-1.8,5.2c-1.2,1.1-3.1,1.7-5.6,1.7c-0.9,0-1.8-0.1-2.7-0.2c-0.9-0.2-1.7-0.4-2.4-0.6
	l0.6-2.9c0.6,0.2,1.3,0.4,2,0.6c0.8,0.2,1.6,0.2,2.4,0.2c1.4,0,2.4-0.3,3-0.9c0.6-0.6,0.9-1.4,0.9-2.5v-0.6
	c-0.3,0.2-0.8,0.3-1.4,0.5c-0.6,0.2-1.2,0.3-1.9,0.3c-1,0-1.8-0.2-2.6-0.5s-1.5-0.8-2-1.3c-0.6-0.6-1-1.3-1.3-2.2
	c-0.3-0.9-0.5-1.9-0.5-3.1c0-1.1,0.2-2.1,0.5-3s0.8-1.7,1.5-2.3c0.6-0.6,1.4-1.2,2.3-1.5c0.9-0.4,2-0.5,3.1-0.5s2.2,0.1,3.2,0.3
	s1.9,0.4,2.6,0.5v12.8C56.7,29.2,56.8,29.2,56.8,29.2z M47.2,22.8c0,1.5,0.3,2.5,1,3.2c0.6,0.7,1.5,1,2.5,1c0.6,0,1.1-0.1,1.6-0.2
	c0.5-0.2,0.9-0.3,1.2-0.5v-7.8c-0.2-0.1-0.6-0.1-0.9-0.2c-0.4,0-0.8-0.1-1.4-0.1c-1.3,0-2.2,0.4-2.9,1.2
	C47.5,20.4,47.2,21.4,47.2,22.8z"/>
<path class="st0" d="M63.6,15.3c1.1,0,2.1,0.1,2.9,0.4c0.8,0.3,1.4,0.7,1.9,1.2s0.8,1.1,1,1.9c0.2,0.7,0.3,1.5,0.3,2.4v9.1
	c-0.5,0.1-1.3,0.3-2.4,0.4c-1.1,0.2-2.3,0.2-3.7,0.2c-0.9,0-1.7-0.1-2.5-0.3c-0.7-0.2-1.4-0.4-1.9-0.8s-0.9-0.9-1.2-1.5
	s-0.4-1.4-0.4-2.3s0.2-1.6,0.5-2.2s0.8-1.1,1.4-1.4c0.6-0.4,1.2-0.6,2-0.8s1.5-0.2,2.4-0.2c0.4,0,0.8,0,1.2,0.1
	c0.4,0,0.9,0.1,1.3,0.2v-0.6c0-0.4,0-0.8-0.1-1.1c-0.1-0.4-0.3-0.7-0.5-1s-0.6-0.5-0.9-0.6c-0.4-0.2-0.9-0.2-1.5-0.2
	c-0.8,0-1.5,0.1-2.2,0.2s-1.2,0.2-1.6,0.4L59.2,16c0.4-0.2,1.1-0.3,1.9-0.5C61.8,15.4,62.7,15.3,63.6,15.3z M63.9,28.2
	c1.1,0,1.9-0.1,2.4-0.2v-3.8c-0.2-0.1-0.5-0.1-0.8-0.2c-0.4-0.1-0.8-0.1-1.2-0.1c-0.4,0-0.8,0-1.2,0.1s-0.7,0.2-1.1,0.3
	c-0.3,0.2-0.6,0.4-0.8,0.6c-0.2,0.3-0.3,0.6-0.3,1c0,0.8,0.3,1.4,0.8,1.7C62.4,28.1,63.1,28.2,63.9,28.2z"/>
<g>
	<path class="st0" d="M80.2,22.8c0-1.6-0.2-2.7-0.6-3.4s-1.1-1-2.2-1c-0.4,0-0.8,0-1.3,0.1s-0.8,0.1-1,0.1v12.1h-3.5V16.2
		c0.7-0.2,1.5-0.4,2.6-0.5c1.1-0.2,2.2-0.3,3.4-0.3c1,0,1.9,0.1,2.5,0.4c0.7,0.3,1.2,0.6,1.6,1.1c0.2-0.2,0.5-0.3,0.8-0.5
		s0.7-0.3,1.1-0.5c0.4-0.1,0.8-0.3,1.3-0.4c0.4-0.1,0.9-0.1,1.4-0.1c1.2,0,2.1,0.2,2.9,0.5c0.8,0.3,1.3,0.8,1.8,1.4
		c0.4,0.6,0.7,1.3,0.9,2.2c0.2,0.8,0.2,1.8,0.2,2.8v8.4h-3.5v-7.9c0-1.6-0.2-2.7-0.6-3.4s-1.1-1-2.2-1c-0.6,0-1.1,0.1-1.6,0.3
		s-0.9,0.4-1.1,0.5c0.1,0.5,0.3,1,0.3,1.5c0.1,0.5,0.1,1.1,0.1,1.7v8.3h-3.3L80.2,22.8L80.2,22.8z"/>
	<path class="st0" d="M97.7,11.9c0,0.6-0.2,1.2-0.6,1.5c-0.4,0.4-0.9,0.6-1.5,0.6s-1.1-0.2-1.5-0.6c-0.4-0.4-0.6-0.9-0.6-1.5
		c0-0.7,0.2-1.2,0.6-1.6c0.4-0.4,0.9-0.6,1.5-0.6s1.1,0.2,1.5,0.6S97.7,11.2,97.7,11.9z"/>
	<rect x="93.9" y="15.7" class="st0" width="3.5" height="15"/>
	<path class="st0" d="M107.5,18.7c-0.3-0.1-0.4-0.1-0.9-0.2s-1.1-0.2-1.8-0.2c-0.4,0-0.8,0-1.2,0.1c-0.4,0.1-0.7,0.1-0.9,0.2v12
		h-3.5V16.3c0.7-0.2,1.5-0.5,2.5-0.7s2.1-0.3,3.3-0.3c0.2,0,0.5,0,0.8,0s0.6,0.1,0.9,0.1s0.6,0.1,0.9,0.2c0.3,0.1,0.5,0.1,0.7,0.2
		L107.5,18.7z"/>
</g>
<g>
	<path class="st0" d="M121,13.5c0-0.5-0.4-0.9-0.9-0.9s-0.9,0.4-0.9,0.9s0.4,0.9,0.9,0.9S121,14,121,13.5z"/>
	<path class="st0" d="M124.7,7.2c-8.8,0-16,7.2-16,16c0,5.3,2.6,10.1,6.7,13l4.3-4.2v-1.5V17.3v-1.5l0,0c0-0.5-0.2-0.7-0.5-0.9
		c-0.5-0.3-0.8-0.8-0.8-1.4c0-0.9,0.8-1.7,1.7-1.7c0.9,0,1.7,0.8,1.7,1.7c0,0.6-0.3,1.1-0.8,1.4l0,0c-0.3,0.2-0.5,0.4-0.5,0.8v1.6
		v13.2v1.8l0,0l-4.4,4.3c2.5,1.6,5.5,2.6,8.7,2.6c8.8,0,16-7.2,16-16C140.7,14.4,133.6,7.2,124.7,7.2z M118.9,17.3v13.2h-0.8V17.3
		H118.9z M121.9,30.5h-0.7V17.3h0.8v13.2H121.9z M131.6,30.5c-0.6,0.2-1.3,0.3-2,0.3c-0.9,0-1.6-0.1-2.2-0.3c-0.6-0.2-1.1-0.6-1.4-1
		c-0.4-0.5-0.6-1-0.7-1.7s-0.2-1.4-0.2-2.3V13.7l2.4-0.4v4.1h5v2h-5v6.1c0,0.7,0.1,1.2,0.2,1.6s0.3,0.8,0.5,1s0.5,0.4,0.8,0.5
		s0.7,0.2,1.1,0.2c0.7,0,1.3-0.1,1.7-0.2c0.4-0.2,0.7-0.3,0.9-0.3l0.5,2C132.6,30.1,132.2,30.3,131.6,30.5z"/>
</g>
</svg>
