<svg id="Layer_1" data-name="Layer 1" xmlns="http://www.w3.org/2000/svg" viewBox="0 0 25 25"><title>Artboard 1</title><path d="M4.38,4.26v.12A4,4,0,0,0,6.07,1.7,2.78,2.78,0,0,0,4.38,4.26Z"/><path d="M4.77,4.57l-.06.08a3.43,3.43,0,0,0,2.47-1A2.33,2.33,0,0,0,4.77,4.57Z"/><path d="M5.89,3.26s0,.07,0,.11A3.9,3.9,0,0,0,8.38,1.74,2.64,2.64,0,0,0,5.89,3.26Z"/><path d="M3.36,6.41a1,1,0,0,0,0,.1A3.44,3.44,0,0,0,5.57,5.06,2.35,2.35,0,0,0,3.36,6.41Z"/><path d="M2.42,8.53s0,.07,0,.1A3.37,3.37,0,0,0,4.31,6.76,2.37,2.37,0,0,0,2.42,8.53Z"/><path d="M2,10.85V11A3.4,3.4,0,0,0,3.44,8.7,2.34,2.34,0,0,0,2,10.85Z"/><path d="M2.06,13.37a.3.3,0,0,0,0,.1A3.42,3.42,0,0,0,3,11,2.34,2.34,0,0,0,2.06,13.37Z"/><path d="M2.74,15.72a.41.41,0,0,0,0,.09,3.48,3.48,0,0,0,.35-2.65A2.35,2.35,0,0,0,2.74,15.72Z"/><path d="M4,18l.07.08a3.49,3.49,0,0,0-.4-2.65A2.34,2.34,0,0,0,4,18Z"/><path d="M5.79,19.82a.27.27,0,0,0,.08.07A3.42,3.42,0,0,0,5,17.37,2.33,2.33,0,0,0,5.79,19.82Z"/><path d="M8,21.27l.1,0A3.47,3.47,0,0,0,6.6,19.1,2.37,2.37,0,0,0,8,21.27Z"/><path d="M10.64,22.08h.1a3.44,3.44,0,0,0-2-1.76A2.35,2.35,0,0,0,10.64,22.08Z"/><path d="M2.93,6.19l0,.12a4.06,4.06,0,0,0,1-3A2.79,2.79,0,0,0,2.93,6.19Z"/><path d="M1.94,8.38A1.17,1.17,0,0,0,2,8.49a4.09,4.09,0,0,0,.34-3.15A2.76,2.76,0,0,0,1.94,8.38Z"/><path d="M1.4,10.86l.08.09A4.14,4.14,0,0,0,1.17,7.8,2.76,2.76,0,0,0,1.4,10.86Z"/><path d="M1.47,13.48l.1.08a4.08,4.08,0,0,0-1.06-3A2.78,2.78,0,0,0,1.47,13.48Z"/><path d="M2.18,16l.12,0A4.07,4.07,0,0,0,.46,13.46,2.77,2.77,0,0,0,2.18,16Z"/><path d="M3.48,18.33H3.6a4.1,4.1,0,0,0-2.43-2A2.8,2.8,0,0,0,3.48,18.33Z"/><path d="M5.36,20.35l.12,0A4.09,4.09,0,0,0,2.61,19,2.77,2.77,0,0,0,5.36,20.35Z"/><path d="M7.73,21.85l.12,0a4.07,4.07,0,0,0-3.12-.57A2.78,2.78,0,0,0,7.73,21.85Z"/><path d="M10.51,22.8l.1-.08a4.09,4.09,0,0,0-3.16.19A2.77,2.77,0,0,0,10.51,22.8Z"/><path d="M20.62,4.26v.12A4,4,0,0,1,18.93,1.7,2.78,2.78,0,0,1,20.62,4.26Z"/><path d="M20.23,4.57l.06.08a3.43,3.43,0,0,1-2.47-1A2.33,2.33,0,0,1,20.23,4.57Z"/><path d="M19.11,3.26s0,.07,0,.11a3.9,3.9,0,0,1-2.53-1.63A2.64,2.64,0,0,1,19.11,3.26Z"/><path d="M21.64,6.41a1,1,0,0,1,0,.1,3.44,3.44,0,0,1-2.25-1.45A2.35,2.35,0,0,1,21.64,6.41Z"/><path d="M22.58,8.53s0,.07,0,.1a3.37,3.37,0,0,1-1.91-1.87A2.37,2.37,0,0,1,22.58,8.53Z"/><path d="M23,10.85V11A3.4,3.4,0,0,1,21.56,8.7,2.34,2.34,0,0,1,23,10.85Z"/><path d="M22.94,13.37a.3.3,0,0,1,0,.1A3.42,3.42,0,0,1,22,11,2.34,2.34,0,0,1,22.94,13.37Z"/><path d="M22.26,15.72a.41.41,0,0,1-.05.09,3.48,3.48,0,0,1-.35-2.65A2.35,2.35,0,0,1,22.26,15.72Z"/><path d="M21,18l-.07.08a3.49,3.49,0,0,1,.4-2.65A2.34,2.34,0,0,1,21,18Z"/><path d="M19.21,19.82a.27.27,0,0,1-.08.07A3.42,3.42,0,0,1,20,17.37,2.33,2.33,0,0,1,19.21,19.82Z"/><path d="M17,21.27l-.1,0A3.47,3.47,0,0,1,18.4,19.1,2.37,2.37,0,0,1,17,21.27Z"/><path d="M14.36,22.08h-.1a3.44,3.44,0,0,1,2-1.76A2.35,2.35,0,0,1,14.36,22.08Z"/><path d="M22.07,6.19l0,.12a4.06,4.06,0,0,1-1-3A2.79,2.79,0,0,1,22.07,6.19Z"/><path d="M23.06,8.38a1.17,1.17,0,0,1,0,.11,4.09,4.09,0,0,1-.34-3.15A2.76,2.76,0,0,1,23.06,8.38Z"/><path d="M23.6,10.86l-.08.09a4.14,4.14,0,0,1,.31-3.15A2.76,2.76,0,0,1,23.6,10.86Z"/><path d="M23.53,13.48l-.1.08a4.08,4.08,0,0,1,1.06-3A2.78,2.78,0,0,1,23.53,13.48Z"/><path d="M22.82,16l-.12,0a4.07,4.07,0,0,1,1.84-2.57A2.77,2.77,0,0,1,22.82,16Z"/><path d="M21.52,18.33H21.4a4.1,4.1,0,0,1,2.43-2A2.8,2.8,0,0,1,21.52,18.33Z"/><path d="M19.64,20.35l-.12,0A4.09,4.09,0,0,1,22.39,19,2.77,2.77,0,0,1,19.64,20.35Z"/><path d="M17.27,21.85l-.12,0a4.07,4.07,0,0,1,3.12-.57A2.78,2.78,0,0,1,17.27,21.85Z"/><path d="M14.49,22.8l-.1-.08a4.09,4.09,0,0,1,3.16.19A2.77,2.77,0,0,1,14.49,22.8Z"/></svg>