<svg width="136" height="132" version="1.1" id="Layer_1" xmlns="http://www.w3.org/2000/svg" xmlns:xlink="http://www.w3.org/1999/xlink" x="0px" y="0px"
	 viewBox="0 0 25 25" style="enable-background:new 0 0 25 25;" xml:space="preserve">
<style type="text/css">
	.st0{fill:#E1E1E1;}
</style>
<title>Artboard 1</title>
<path class="st0" d="M4.4,4.3v0.1c0.9-0.6,1.5-1.6,1.7-2.7C5,2.1,4.4,3.1,4.4,4.3z"/>
<path class="st0" d="M4.8,4.6L4.8,4.6c0.9,0.1,1.8-0.3,2.4-0.9C6.3,3.4,5.3,3.8,4.8,4.6z"/>
<path class="st0" d="M5.9,3.3c0,0,0,0.1,0,0.1c1-0.2,1.9-0.8,2.5-1.6C7.3,1.7,6.3,2.3,5.9,3.3z"/>
<path class="st0" d="M3.4,6.4C3.4,6.4,3.4,6.5,3.4,6.4c0.9-0.1,1.7-0.6,2.2-1.3C4.6,5,3.8,5.6,3.4,6.4z"/>
<path class="st0" d="M2.4,8.5c0,0,0,0.1,0,0.1c0.9-0.3,1.5-1,1.9-1.9C3.4,6.9,2.6,7.6,2.4,8.5z"/>
<path class="st0" d="M2,10.9V11c0.8-0.5,1.3-1.4,1.4-2.3C2.6,9.1,2,9.9,2,10.9z"/>
<path class="st0" d="M2.1,13.4c0,0,0,0.1,0,0.1C2.7,12.8,3,11.9,3,11C2.2,11.5,1.9,12.5,2.1,13.4z"/>
<path class="st0" d="M2.7,15.7C2.7,15.7,2.7,15.8,2.7,15.7c0.5-0.7,0.6-1.7,0.3-2.6C2.5,13.9,2.3,14.9,2.7,15.7z"/>
<path class="st0" d="M4,18L4,18c0.3-0.8,0.2-1.8-0.3-2.6C3.3,16.3,3.4,17.3,4,18z"/>
<path class="st0" d="M5.8,19.8C5.8,19.8,5.8,19.9,5.8,19.8C5.9,19,5.6,18.1,5,17.4C4.7,18.3,5.1,19.2,5.8,19.8z"/>
<path class="st0" d="M8,21.3h0.1c-0.2-0.9-0.7-1.7-1.5-2.2C6.6,20,7.1,20.9,8,21.3z"/>
<path class="st0" d="M10.6,22.1h0.1c-0.4-0.8-1.1-1.5-2-1.8C9,21.2,9.7,21.9,10.6,22.1z"/>
<path class="st0" d="M2.9,6.2v0.1c0.7-0.8,1.1-1.9,1-3C3.1,4,2.7,5.1,2.9,6.2z"/>
<path class="st0" d="M1.9,8.4c0,0,0,0.1,0.1,0.1c0.5-1,0.7-2.1,0.3-3.2C1.6,6.2,1.4,7.4,1.9,8.4z"/>
<path class="st0" d="M1.4,10.9L1.4,10.9c0.4-1,0.3-2.1-0.2-3.1C0.6,8.8,0.7,10,1.4,10.9z"/>
<path class="st0" d="M1.5,13.5l0.1,0.1c0.1-1.1-0.3-2.2-1.1-3C0.2,11.6,0.6,12.8,1.5,13.5z"/>
<path class="st0" d="M2.2,16h0.1c-0.2-1.1-0.9-2-1.8-2.5C0.5,14.6,1.1,15.6,2.2,16z"/>
<path class="st0" d="M3.5,18.3h0.1c-0.5-1-1.4-1.7-2.4-2C1.5,17.4,2.4,18.2,3.5,18.3z"/>
<path class="st0" d="M5.4,20.4h0.1C4.7,19.5,3.7,19,2.6,19C3.2,20,4.3,20.5,5.4,20.4z"/>
<path class="st0" d="M7.7,21.9h0.1c-0.9-0.6-2-0.8-3.1-0.6C5.5,22.1,6.7,22.3,7.7,21.9z"/>
<path class="st0" d="M10.5,22.8l0.1-0.1c-1-0.4-2.2-0.3-3.2,0.2C8.4,23.5,9.6,23.4,10.5,22.8z"/>
<path class="st0" d="M20.6,4.3v0.1c-0.9-0.6-1.5-1.6-1.7-2.7C20,2.1,20.6,3.1,20.6,4.3z"/>
<path class="st0" d="M20.2,4.6L20.2,4.6c-0.9,0.1-1.8-0.3-2.4-0.9C18.7,3.4,19.7,3.8,20.2,4.6z"/>
<path class="st0" d="M19.1,3.3c0,0,0,0.1,0,0.1c-1-0.2-1.9-0.8-2.5-1.6C17.7,1.7,18.7,2.3,19.1,3.3z"/>
<path class="st0" d="M21.6,6.4C21.6,6.4,21.6,6.5,21.6,6.4c-0.9-0.1-1.7-0.6-2.3-1.4C20.3,5,21.2,5.5,21.6,6.4z"/>
<path class="st0" d="M22.6,8.5c0,0,0,0.1,0,0.1c-0.9-0.3-1.6-1-1.9-1.9C21.6,6.9,22.4,7.6,22.6,8.5z"/>
<path class="st0" d="M23,10.9V11c-0.8-0.5-1.3-1.4-1.4-2.3C22.4,9.1,23,9.9,23,10.9z"/>
<path class="st0" d="M22.9,13.4c0,0,0,0.1,0,0.1c-0.6-0.7-1-1.6-0.9-2.5C22.8,11.5,23.1,12.5,22.9,13.4z"/>
<path class="st0" d="M22.3,15.7C22.2,15.8,22.2,15.8,22.3,15.7c-0.5-0.7-0.6-1.7-0.4-2.6C22.5,13.9,22.7,14.9,22.3,15.7z"/>
<path class="st0" d="M21,18L21,18c-0.3-0.8-0.2-1.8,0.3-2.6C21.7,16.3,21.6,17.3,21,18z"/>
<path class="st0" d="M19.2,19.8C19.2,19.8,19.2,19.9,19.2,19.8c-0.1-0.9,0.2-1.8,0.8-2.4C20.3,18.3,19.9,19.2,19.2,19.8z"/>
<path class="st0" d="M17,21.3h-0.1c0.2-0.9,0.7-1.7,1.5-2.2C18.4,20,17.9,20.9,17,21.3z"/>
<path class="st0" d="M14.4,22.1h-0.1c0.4-0.8,1.1-1.5,2-1.8C16,21.2,15.3,21.9,14.4,22.1z"/>
<path class="st0" d="M22.1,6.2v0.1c-0.7-0.8-1.1-1.9-1-3C21.9,4,22.3,5.1,22.1,6.2z"/>
<path class="st0" d="M23.1,8.4c0,0,0,0.1,0,0.1c-0.5-1-0.7-2.1-0.3-3.2C23.4,6.2,23.6,7.4,23.1,8.4z"/>
<path class="st0" d="M23.6,10.9L23.6,10.9c-0.4-1-0.3-2.1,0.2-3.1C24.4,8.8,24.3,10,23.6,10.9z"/>
<path class="st0" d="M23.5,13.5l-0.1,0.1c-0.1-1.1,0.3-2.2,1.1-3C24.8,11.6,24.4,12.8,23.5,13.5z"/>
<path class="st0" d="M22.8,16h-0.1c0.2-1.1,0.9-2,1.8-2.6C24.5,14.6,23.9,15.6,22.8,16z"/>
<path class="st0" d="M21.5,18.3h-0.1c0.5-1,1.4-1.7,2.4-2C23.5,17.4,22.6,18.2,21.5,18.3z"/>
<path class="st0" d="M19.6,20.4h-0.1c0.7-0.8,1.8-1.3,2.9-1.4C21.8,20,20.7,20.5,19.6,20.4z"/>
<path class="st0" d="M17.3,21.9h-0.1c0.9-0.6,2-0.8,3.1-0.6C19.5,22.1,18.3,22.3,17.3,21.9z"/>
<path class="st0" d="M14.5,22.8l-0.1-0.1c1-0.4,2.2-0.3,3.2,0.2C16.6,23.5,15.4,23.4,14.5,22.8z"/>
</svg>
