<svg width="68" height="68" version="1.1" id="Layer_1" xmlns="http://www.w3.org/2000/svg" xmlns:xlink="http://www.w3.org/1999/xlink" x="0px" y="0px"
	 viewBox="0 0 46.2 47" style="enable-background:new 0 0 46.2 47;" xml:space="preserve">
<style type="text/css">
	.st0{fill:none;stroke:#13B63A;stroke-linecap:round;stroke-linejoin:round;stroke-miterlimit:10;}
	.st1{fill:none;stroke:#D6D6D6;stroke-linecap:round;stroke-linejoin:round;stroke-miterlimit:10;}
</style>
<g>
	<path class="st0" d="M28,37.9c5.1,0.2,9.3-4,9.1-9.1"/>
	<path class="st0" d="M28,42.3c7.5,0.2,13.7-6,13.5-13.5"/>
	<path class="st0" d="M32.7,28.8c0.2,2.7-2,4.9-4.7,4.7"/>
	<path class="st1" d="M19.6,29.1c-0.9-3-0.6-5.8,1.1-7.5c1.7-1.7,4.5-2,7.5-1.1L19.6,29.1z"/>
	<line class="st1" x1="24" y1="24.8" x2="27.1" y2="27.9"/>
	<path class="st1" d="M27.8,29.7c-0.6,0-1.1-0.5-1.1-1.1c0-0.6,0.5-1.1,1.1-1.1s1.1,0.5,1.1,1.1C28.9,29.3,28.4,29.7,27.8,29.7z"/>
	<polyline class="st1" points="23.6,20.1 16,12.6 11.7,16.9 19.3,24.5 	"/>
	<rect x="6.9" y="20.7" transform="matrix(0.7071 -0.7071 0.7071 0.7071 -15.178 14.5121)" class="st1" width="6.1" height="9.8"/>
	<rect x="21.7" y="5.9" transform="matrix(0.7071 -0.7071 0.7071 0.7071 -0.3805 20.6417)" class="st1" width="6.1" height="9.8"/>
	<line class="st1" x1="22.6" y1="12.9" x2="19.5" y2="16"/>
	<line class="st1" x1="15.2" y1="20.3" x2="12.1" y2="23.4"/>
	<line class="st1" x1="21.3" y1="7.3" x2="28.2" y2="14.2"/>
	<line class="st1" x1="6.5" y1="22.1" x2="13.4" y2="29"/>
</g>
</svg>
