<?xml version="1.0" encoding="utf-8"?>
<!-- Generator: Adobe Illustrator 22.1.0, SVG Export Plug-In . SVG Version: 6.00 Build 0)  -->
<svg version="1.1" id="Layer_1" xmlns="http://www.w3.org/2000/svg" xmlns:xlink="http://www.w3.org/1999/xlink" x="0px" y="0px"
	 viewBox="0 0 40 39.5" style="enable-background:new 0 0 40 39.5;" xml:space="preserve">
<path fill="#fff" d="M-0.3,10.9c1,4.2,9.7,13.9,13,17.1c3.4,3.2,13.9,11,18.1,11.5c4.4,0.6,10.1-5.9,9.7-7.2S31,25.4,29.1,27
	c-1.6,1.4-2.1,4.6-3.1,4.1c-1.3-0.6-7.1-4.5-9.7-7c-2.6-2.4-7-7.8-7.8-9.1c-0.5-1,2.6-1.7,3.9-3.5C13.8,9.4,7.4,0.8,6,0.6
	C4.7,0.4-1.3,6.5-0.3,10.9z"/>
</svg>
