<svg width="13" height="15" version="1.1" id="Layer_1" xmlns="http://www.w3.org/2000/svg" xmlns:xlink="http://www.w3.org/1999/xlink" x="0px" y="0px"
	 viewBox="0 0 40 40" style="enable-background:new 0 0 40 40;" xml:space="preserve">
<path fill="#ffffff" d="M0.1,10c0.8,4.2,9.1,14.3,12.3,17.6c3.3,3.3,13.4,11.6,17.6,12.3c4.4,0.8,10.3-5.5,10-6.8c-0.3-1.3-9.2-7.3-11.2-5.8
	c-1.7,1.3-2.3,4.5-3.3,4c-1.3-0.7-6.9-4.8-9.4-7.4c-2.5-2.5-6.7-8.1-7.4-9.4c-0.5-1,2.7-1.6,4-3.3C14.3,9.1,8.3,0.2,6.9,0
	C5.6-0.3-0.7,5.6,0.1,10z"/>
</svg>
