<?xml version="1.0" encoding="utf-8"?>
<!-- Generator: Adobe Illustrator 22.1.0, SVG Export Plug-In . SVG Version: 6.00 Build 0)  -->
<svg width="21" height="28" version="1.1" id="Layer_1" xmlns="http://www.w3.org/2000/svg" xmlns:xlink="http://www.w3.org/1999/xlink" x="0px" y="0px"
	 viewBox="0 0 20.4 27.5" style="enable-background:new 0 0 20.4 27.5;" xml:space="preserve">
<style type="text/css">
	.st0{fill:none;stroke:#ffffff;stroke-miterlimit:10;}
	.st1{fill:none;stroke:#ffffff;stroke-linecap:round;stroke-miterlimit:10;}
</style>
<path class="st0" d="M10.2,21.3c0,0-4.6,0-7.1,0s-2.3,2-2.3,2V27h9.4"/>
<path class="st0" d="M10.2,7.1c-3,0-6,2.2-6,5.7c0,4.6,0,8.4,0,8.4"/>
<path class="st0" d="M10.2,21.3c0,0,4.6,0,7.1,0s2.3,2,2.3,2V27h-9.4"/>
<path class="st0" d="M10.2,7.1c3,0,6,2.2,6,5.7c0,4.6,0,8.4,0,8.4"/>
<line class="st1" x1="10.2" y1="4.2" x2="10.2" y2="0.5"/>
<line class="st1" x1="3" y1="7.1" x2="0.5" y2="4.4"/>
<line class="st1" x1="17.4" y1="7.1" x2="19.9" y2="4.4"/>
<path class="st1" d="M10.2,9.4c-1.8,0-3.6,1.3-3.6,3.2"/>
</svg>
