<?xml version="1.0" encoding="utf-8"?>
<!-- Generator: Adobe Illustrator 22.1.0, SVG Export Plug-In . SVG Version: 6.00 Build 0)  -->
<svg width="23" height="29" version="1.1" id="Layer_1" xmlns="http://www.w3.org/2000/svg" xmlns:xlink="http://www.w3.org/1999/xlink" x="0px" y="0px"
	 viewBox="0 0 22.3 28.6" style="enable-background:new 0 0 22.3 28.6;" xml:space="preserve">
<style type="text/css">
	.st0{fill:none;stroke:#ffffff;stroke-linecap:round;stroke-linejoin:round;stroke-miterlimit:10;}
	.st1{fill:none;stroke:#ffffff;stroke-linecap:round;stroke-linejoin:round;}
</style>
<g>
	<path class="st0" d="M10.5,18.1c5.5-1.8,6.1-6.6,3.2-11.6c0,0-11.4,5.6-5,11.1"/>
	<path class="st0" d="M11.1,22c-0.8-2.7-1.7-4.5,0.7-9.7"/>
	<path class="st0" d="M11.8,12.3"/>
</g>
<path class="st1" d="M11.1,0.5c0,0-5.1,3.1-10.6,3.1c0,0,0,5.8,0,7.8c0,8.5,1.8,12.3,10.6,16.8"/>
<path class="st1" d="M11.1,0.5c0,0,5.1,3.1,10.6,3.1c0,0,0,5.8,0,7.8c0,8.5-1.8,12.3-10.6,16.8"/>
</svg>
