<?xml version="1.0" encoding="utf-8"?>
<!-- Generator: Adobe Illustrator 22.1.0, SVG Export Plug-In . SVG Version: 6.00 Build 0)  -->
<svg width="26" height="25" version="1.1" id="Layer_1" xmlns="http://www.w3.org/2000/svg" xmlns:xlink="http://www.w3.org/1999/xlink" x="0px" y="0px"
	 viewBox="0 0 25.4 25" style="enable-background:new 0 0 25.4 25;" xml:space="preserve">
<style type="text/css">
	.st0{fill:none;stroke:#ffffff;stroke-linecap:round;stroke-linejoin:round;stroke-miterlimit:10;}
</style>
<path class="st0" d="M17.6,3.1c-0.3,1.1-1.5,1.7-2.5,1.3S13.3,3,13.7,1.9c0.3-1.1,1.5-1.7,2.5-1.3S17.9,2.1,17.6,3.1z"/>
<path class="st0" d="M8.5,21.6c-0.7,2.2-3,3.4-5.1,2.7c-2.2-0.7-3.4-3-2.7-5.1c0.7-2.2,3-3.4,5.1-2.7C8,17.2,9.2,19.5,8.5,21.6z"/>
<path class="st0" d="M24.7,21.6c-0.7,2.2-3,3.4-5.1,2.7c-2.2-0.7-3.4-3-2.7-5.1c0.7-2.2,3-3.4,5.1-2.7
	C24.2,17.2,25.4,19.5,24.7,21.6z"/>
<polyline class="st0" points="8.4,15.2 4.6,20.4 4.6,20.4 "/>
<path class="st0" d="M20.8,20.4L20.8,20.4l-1.1-8.6h-3l-2.2-4.5c-0.6-1.3-2.4-1.6-3.2,0l-2.5,3.5c-0.4,0.6-0.3,1.4,0.2,1.9l4.3,3.4
	c0.1,0.2,0,5.5,0,5.5"/>
<line class="st0" x1="21" y1="9.9" x2="19.7" y2="11.7"/>
</svg>
