<?xml version="1.0" encoding="utf-8"?>
<!-- Generator: Adobe Illustrator 22.1.0, SVG Export Plug-In . SVG Version: 6.00 Build 0)  -->
<svg width="31" height="14" version="1.1" id="Layer_1" xmlns="http://www.w3.org/2000/svg" xmlns:xlink="http://www.w3.org/1999/xlink" x="0px" y="0px"
	 viewBox="0 0 30.4 13.6" style="enable-background:new 0 0 30.4 13.6;" xml:space="preserve">
<style type="text/css">
	.st0{fill:none;stroke:#ffffff;stroke-linecap:round;stroke-linejoin:round;stroke-miterlimit:10;}
</style>
<path class="st0" d="M29.9,12.2c-1.2-1.2-3.1-1.2-4.3,0c-1.2,1.2-3.1,1.2-4.3,0c-1.2-1.2-3.1-1.2-4.3,0c-1.2,1.2-3.1,1.2-4.3,0
	s-3.1-1.2-4.3,0c-1.2,1.2-3.1,1.2-4.3,0c-0.9-0.9-2.4-1.1-3.5-0.6"/>
<path class="st0" d="M29.9,6.8c-1.2-1.2-3.1-1.2-4.3,0c-1.2,1.2-3.1,1.2-4.3,0c-1.2-1.2-3.1-1.2-4.3,0c-1.2,1.2-3.1,1.2-4.3,0
	s-3.1-1.2-4.3,0C7.1,8,5.2,8,4,6.8C3.1,5.8,1.6,5.7,0.5,6.2"/>
<path class="st0" d="M29.9,1.4c-1.2-1.2-3.1-1.2-4.3,0c-1.2,1.2-3.1,1.2-4.3,0c-1.2-1.2-3.1-1.2-4.3,0c-1.2,1.2-3.1,1.2-4.3,0
	s-3.1-1.2-4.3,0C7.1,2.6,5.2,2.6,4,1.4C3.1,0.4,1.6,0.3,0.5,0.8"/>
</svg>
