<?xml version="1.0" encoding="utf-8"?>
<!-- Generator: Adobe Illustrator 22.1.0, SVG Export Plug-In . SVG Version: 6.00 Build 0)  -->
<svg width="22" height="24" version="1.1" id="Layer_1" xmlns="http://www.w3.org/2000/svg" xmlns:xlink="http://www.w3.org/1999/xlink" x="0px" y="0px"
	 viewBox="0 0 21.2 23.7" style="enable-background:new 0 0 21.2 23.7;" xml:space="preserve">
<style type="text/css">
	.st0{fill:none;stroke:#ffffff;stroke-linecap:round;stroke-linejoin:round;stroke-miterlimit:10;}
</style>
<g>
	<path class="st0" d="M13.9,11.8l2.5-11.3c0,0,2.4,11.3,4.3,19.8c-1.2,1.8-7.3,1.7-8.6,0c0.2-1.1,0.5-2.2,0.5-2.2"/>
	<path class="st0" d="M5,18c-3.6,1.9-6.3-3.9-2.9-6C1.2,8.6,3.4,5.2,6.6,5.2c2.4,0,4.3,1.9,4.7,4.4c1.8,0.5,3.2,2.4,3.2,4.6
		c0,3.7-3.8,6-6.6,4"/>
	<line class="st0" x1="16.4" y1="23.2" x2="16.4" y2="17.3"/>
	<line class="st0" x1="6.4" y1="23.2" x2="6.4" y2="10.3"/>
	<path class="st0" d="M6.5,17c0,0,0.4-3.7,3.7-2.6"/>
	<path class="st0" d="M6.5,15.6c0,0-1-1.6-2.9-0.5"/>
</g>
</svg>
