<?xml version="1.0" encoding="utf-8"?>
<!-- Generator: Adobe Illustrator 22.1.0, SVG Export Plug-In . SVG Version: 6.00 Build 0)  -->
<svg width="30" height="30" version="1.1" id="Layer_1" xmlns="http://www.w3.org/2000/svg" xmlns:xlink="http://www.w3.org/1999/xlink" x="0px" y="0px"
	 viewBox="0 0 29.1 29.9" style="enable-background:new 0 0 29.1 29.9;" xml:space="preserve">
<style type="text/css">
	.st0{fill:none;stroke:#ffffff;stroke-linecap:round;stroke-linejoin:round;stroke-miterlimit:10;}
</style>
<g>
	<rect x="15.2" y="7.7" class="st0" width="10.2" height="21.7"/>
	<polygon class="st0" points="12.6,0.5 3.7,5.5 3.7,29.4 12.6,29.4 	"/>
	<polyline class="st0" points="7.5,24.3 7.5,24.3 8.8,24.3 8.8,24.3 	"/>
	<polyline class="st0" points="7.5,21.8 7.5,21.8 8.8,21.8 8.8,21.8 	"/>
	<polyline class="st0" points="7.5,19.2 7.5,19.2 8.8,19.2 8.8,19.2 	"/>
	<polyline class="st0" points="7.5,16.6 7.5,16.6 8.8,16.6 8.8,16.6 	"/>
	<polyline class="st0" points="7.5,14.1 7.5,14.1 8.8,14.1 8.8,14.1 	"/>
	<polyline class="st0" points="7.5,11.5 7.5,11.5 8.8,11.5 8.8,11.5 	"/>
	<polyline class="st0" points="7.5,9 7.5,9 8.8,9 8.8,9 	"/>
	<polyline class="st0" points="17.8,12.8 17.8,12.8 17.8,25.6 17.8,25.6 	"/>
	<polyline class="st0" points="20.3,12.8 20.3,12.8 20.3,25.6 20.3,25.6 	"/>
	<polyline class="st0" points="22.9,12.8 22.9,12.8 22.9,25.6 22.9,25.6 	"/>
	<line class="st0" x1="0.5" y1="29.4" x2="28.6" y2="29.4"/>
	<line class="st0" x1="20.3" y1="7.7" x2="20.3" y2="2.5"/>
	<line class="st0" x1="25.4" y1="25.6" x2="15.2" y2="25.6"/>
</g>
</svg>
