<?xml version="1.0" encoding="utf-8"?>
<!-- Generator: Adobe Illustrator 22.1.0, SVG Export Plug-In . SVG Version: 6.00 Build 0)  -->
<svg width="31" height="33" version="1.1" id="Слой_1" xmlns="http://www.w3.org/2000/svg" xmlns:xlink="http://www.w3.org/1999/xlink" x="0px" y="0px"
	 viewBox="0 0 30.6 32.8" style="enable-background:new 0 0 30.6 32.8;" xml:space="preserve">
<style type="text/css">
	.sol-st0{fill:#FFFFFF;stroke:#ffffff;stroke-linecap:round;stroke-miterlimit:10;}
	.sol-st1{fill:none;stroke:#ffffff;stroke-linecap:round;stroke-miterlimit:10;}
	.sol-st2{fill:none;stroke:#ffffff;stroke-miterlimit:10;}
</style>
<line class="sol-st0" x1="0.5" y1="32.3" x2="30.1" y2="32.3"/>
<polyline class="sol-st1" points="2.6,32.3 2.6,14.6 28,14.6 28,32.3 "/>
<polyline class="sol-st1" points="5.8,32.3 5.8,20.3 9.2,20.3 9.2,32.3 "/>
<polyline class="sol-st1" points="13.6,32.3 13.6,20.3 17,20.3 17,32.3 "/>
<polyline class="sol-st1" points="21.4,32.3 21.4,20.3 24.8,20.3 24.8,32.3 "/>
<polyline class="sol-st2" points="4.8,14.6 4.8,11.4 25.7,11.4 25.7,14.6 "/>
<line class="sol-st1" x1="15.3" y1="11.4" x2="15.3" y2="0.5"/>
<polyline class="sol-st2" points="15.3,1.8 18.1,1.8 18.1,5 15.2,5 "/>
<polyline class="sol-st2" points="18.1,2.9 21.4,2.9 20.5,4.5 21.4,6.2 18.1,6.2 18.1,5 "/>
</svg>
