<?xml version="1.0" encoding="utf-8"?>
<!-- Generator: Adobe Illustrator 22.1.0, SVG Export Plug-In . SVG Version: 6.00 Build 0)  -->
<svg width="28" height="22" version="1.1" id="Layer_1" xmlns="http://www.w3.org/2000/svg" xmlns:xlink="http://www.w3.org/1999/xlink" x="0px" y="0px"
	 viewBox="0 0 27.4 21.5" style="enable-background:new 0 0 27.4 21.5;" xml:space="preserve">
<style type="text/css">
	.st0{fill:none;stroke:#ffffff;stroke-linecap:round;stroke-linejoin:round;stroke-miterlimit:10;}
</style>
<g>
	<path class="st0" d="M20.1,17.6c0,1.9,1.5,3.4,3.4,3.4c1.9,0,3.4-1.5,3.4-3.4c0-1.9-1.5-3.4-3.4-3.4C21.6,14.2,20.1,15.7,20.1,17.6
		z"/>
	<path class="st0" d="M0.5,16.1c0,2.7,2.2,5,5,5c2.7,0,5-2.2,5-5s-2.2-5-5-5C2.7,11.1,0.5,13.3,0.5,16.1z"/>
	<line class="st0" x1="6.1" y1="8.7" x2="6.1" y2="0.5"/>
	<line class="st0" x1="4.9" y1="0.5" x2="15.6" y2="0.5"/>
	<line class="st0" x1="20.1" y1="8.7" x2="20.1" y2="4.6"/>
	<line class="st0" x1="9.7" y1="8.7" x2="9.7" y2="0.5"/>
	<path class="st0" d="M16.6,8.8V17h-3.4v-3c0-0.4-0.1-0.7-0.3-1L9.7,8.7H2.6"/>
	<line class="st0" x1="13.2" y1="19.3" x2="16.6" y2="19.3"/>
	<line class="st0" x1="5.5" y1="16.1" x2="5.5" y2="16.1"/>
	<line class="st0" x1="23.5" y1="17.6" x2="23.5" y2="17.6"/>
	<path class="st0" d="M14.8,0.5l1.8,8.3h4.2c0,0,5.5,0.6,5.5,3.2v0.9l0,0c-0.8-0.5-1.8-0.8-2.8-0.8c-2.8,0-5.1,2.2-5.5,4.9l-1.5,0"
		/>
</g>
</svg>
