<?xml version="1.0" encoding="utf-8"?>
<!-- Generator: Adobe Illustrator 22.1.0, SVG Export Plug-In . SVG Version: 6.00 Build 0)  -->
<svg width="29" height="19" version="1.1" id="Layer_1" xmlns="http://www.w3.org/2000/svg" xmlns:xlink="http://www.w3.org/1999/xlink" x="0px" y="0px"
	 viewBox="0 0 28.8 19" style="enable-background:new 0 0 28.8 19;" xml:space="preserve">
<style type="text/css">
	.st0{fill:none;stroke:#ffffff;stroke-linecap:round;stroke-linejoin:round;stroke-miterlimit:10;}
</style>
<g>
	<path class="st0" d="M25.9,16.1h2.4v-4.9c0-0.4-0.2-0.8-0.5-1l-2.2-1.5l-2.1-3.5h-3.7"/>
	<line class="st0" x1="15" y1="16.2" x2="21.2" y2="16.2"/>
	<path class="st0" d="M23.6,18.5c1.3,0,2.4-1.1,2.4-2.4c0-1.3-1.1-2.4-2.4-2.4c-1.3,0-2.4,1.1-2.4,2.4
		C21.2,17.4,22.3,18.5,23.6,18.5z"/>
	<circle class="st0" cx="5.4" cy="16.1" r="2.4"/>
	<path class="st0" d="M12.6,18.5c1.3,0,2.4-1.1,2.4-2.4c0-1.3-1.1-2.4-2.4-2.4c-1.3,0-2.4,1.1-2.4,2.4
		C10.2,17.4,11.3,18.5,12.6,18.5z"/>
	<line class="st0" x1="1.2" y1="13.7" x2="28.3" y2="13.7"/>
	<polyline class="st0" points="19.9,13.5 19.9,0.5 0.5,0.5 0.5,13.7 1.7,13.7 1.7,16.1 3,16.1 	"/>
	<line class="st0" x1="10.2" y1="16.2" x2="7.7" y2="16.2"/>
</g>
</svg>
